<?xml version="1.0" encoding="UTF-8"?>
<svg version="1.1" xmlns="http://www.w3.org/2000/svg" width="430" height="107">
<path d="M0 0 C141.9 0 283.8 0 430 0 C430 35.31 430 70.62 430 107 C288.1 107 146.2 107 0 107 C0 71.69 0 36.38 0 0 Z " fill="#F7F6F5" transform="translate(0,0)"/>
<path d="M0 0 C84.81 0 169.62 0 257 0 C254 29 254 29 253 30 C252.83333333 33 252.83333333 33 253 36 C253.33 36.33 253.66 36.66 254 37 C254.25464191 41.2437466 254.18523429 45.49952677 254.1875 49.75 C254.19974609 50.94367187 254.21199219 52.13734375 254.22460938 53.3671875 C254.22654297 54.51960938 254.22847656 55.67203125 254.23046875 56.859375 C254.23457764 57.91608398 254.23868652 58.97279297 254.24291992 60.06152344 C253.99035587 63.11666001 253.39587121 65.27846321 252 68 C249.90625 68.96875 249.90625 68.96875 247.5 69.5 C243.67450933 70.46105091 243.67450933 70.46105091 241.4375 73.6875 C241.293125 74.450625 241.14875 75.21375 241 76 C240.443125 75.34 239.88625 74.68 239.3125 74 C237.18525091 71.79997661 237.18525091 71.79997661 234.5 71.625 C231.93740376 72.00938944 230.26911021 72.79814078 228 74 C228.00523682 72.93789307 228.01047363 71.87578613 228.01586914 70.78149414 C228.03428495 66.75383381 228.0455623 62.726177 228.05493164 58.69848633 C228.05988984 56.9715919 228.06665843 55.24470149 228.07543945 53.51782227 C228.15624356 37.19063884 227.63575585 21.14720331 225 5 C224.34 5 223.68 5 223 5 C222.94013916 5.61891113 222.88027832 6.23782227 222.81860352 6.87548828 C222.40937119 11.04545869 221.98527304 15.20950378 221.46484375 19.3671875 C220.12128345 30.56808062 219.87195859 41.59455675 219.96850586 52.87158203 C220.03688599 61.63271068 219.75902627 70.27119791 219 79 C215 77.66666667 211 76.33333333 207 75 C202.27377518 74.34487973 199.65169697 74.92417835 195.84375 77.625 C194.38355118 78.73401176 192.9358014 79.85957814 191.5 81 C184.14208878 86.84420855 184.14208878 86.84420855 179.10546875 87.53125 C175.06466551 86.83999309 174.34037159 85.22809875 172 82 C170.68 82 169.36 82 168 82 C167.97090237 78.75001888 167.95316839 75.50007143 167.9375 72.25 C167.92912109 71.32960938 167.92074219 70.40921875 167.91210938 69.4609375 C167.90888672 68.57148437 167.90566406 67.68203125 167.90234375 66.765625 C167.89710693 65.94868164 167.89187012 65.13173828 167.88647461 64.29003906 C168 62 168 62 168.53881836 60.05029297 C169.14333841 57.36275493 168.82634895 55.15874581 168.4765625 52.4296875 C168.27546875 50.83833984 168.27546875 50.83833984 168.0703125 49.21484375 C167.92335937 48.11269531 167.77640625 47.01054688 167.625 45.875 C167.41617188 44.21017578 167.41617188 44.21017578 167.203125 42.51171875 C166.68983372 37.08987468 166.68983372 37.08987468 165 32 C161.04002207 47.9395338 160.82995647 63.675821 161 80 C159.39125 79.690625 159.39125 79.690625 157.75 79.375 C154.12380904 79.0123809 152.91708924 79.01637931 150 81 C149.9729183 78.27076612 149.95312153 75.54180363 149.9375 72.8125 C149.92912109 72.04357422 149.92074219 71.27464844 149.91210938 70.48242188 C149.88640835 64.49408394 149.88640835 64.49408394 150.55859375 61.5703125 C151.27986777 57.37032747 150.59741093 53.27431957 150.125 49.0625 C150.03347656 48.18142578 149.94195312 47.30035156 149.84765625 46.39257812 C149.36970339 41.89914805 148.80620458 37.44878344 148 33 C147.34 33 146.68 33 146 33 C145.92652344 33.87785156 145.92652344 33.87785156 145.8515625 34.7734375 C145.45048264 39.37894071 145.01249425 43.97338902 144.453125 48.5625 C144.35821777 49.3560791 144.26331055 50.1496582 144.16552734 50.96728516 C143.97441743 52.55108849 143.77699976 54.13414564 143.57275391 55.71630859 C143.08716812 59.78231563 143.0340623 62.98088857 144 67 C144.06533435 68.93651019 144.08584303 70.87502861 144.0625 72.8125 C144.05347656 73.78832031 144.04445312 74.76414062 144.03515625 75.76953125 C144.01775391 76.87361328 144.01775391 76.87361328 144 78 C141.48868273 76.80080567 139.45385864 75.59949634 137.1875 73.9375 C133.67560805 71.80282058 131.06021098 71.32481688 127 71 C126.01 72.98 126.01 72.98 125 75 C124.34 75 123.68 75 123 75 C120.17077074 70.40250244 119.72901425 67.0926164 119.9921875 61.85546875 C119.99476562 61.24316406 119.99734375 60.63085938 120 60 C119.67 59.67 119.34 59.34 119 59 C119.18152776 55.62358357 119.5218105 52.27198117 119.84375 48.90625 C119.92109375 47.46765625 119.92109375 47.46765625 120 46 C119.67 45.67 119.34 45.34 119 45 C118.8630267 41.9865874 118.90847725 39.37524326 119.625 36.4375 C120.21944551 34.01069699 120.21944551 34.01069699 119.1171875 31.95703125 C117.2530526 27.02293992 116.84253754 21.80585705 116.14453125 16.59765625 C116.02464844 15.76621094 115.90476562 14.93476563 115.78125 14.078125 C115.67876953 13.31918945 115.57628906 12.56025391 115.47070312 11.77832031 C115.23770508 10.89805176 115.23770508 10.89805176 115 10 C114.01 9.505 114.01 9.505 113 9 C112.67 16.92 112.34 24.84 112 33 C111.34 33 110.68 33 110 33 C110.165 33.68578125 110.33 34.3715625 110.5 35.078125 C111.06228692 38.36398919 111.06029331 41.41879453 111 44.75 C110.9626368 46.83299826 110.95293104 48.91719845 111 51 C111.33 51.33 111.66 51.66 112 52 C112.15269408 56.58082248 111.9516006 60.51388286 111 65 C111.33 65.33 111.66 65.66 112 66 C112.04063832 67.66617115 112.042721 69.33388095 112 71 C111.34 70.67 110.68 70.34 110 70 C110 69.34 110 68.68 110 68 C108.515 67.505 108.515 67.505 107 67 C106.67 65.35 106.34 63.7 106 62 C104.02 61.505 104.02 61.505 102 61 C102.01160156 59.85660156 102.02320312 58.71320312 102.03515625 57.53515625 C102.04453288 56.04427246 102.05363321 54.55338691 102.0625 53.0625 C102.07506836 51.93038086 102.07506836 51.93038086 102.08789062 50.77539062 C102.09652441 48.85005687 102.05224333 46.92464419 102 45 C101.67 44.67 101.34 44.34 101 44 C100.83870826 39.80641479 101.1572664 36.09327749 102 32 C101.67 31.67 101.34 31.34 101 31 C100.85457866 29.34095995 100.77280138 27.67624262 100.71875 26.01171875 C100.66267578 24.48708008 100.66267578 24.48708008 100.60546875 22.93164062 C100.57066406 21.86107422 100.53585938 20.79050781 100.5 19.6875 C100.43096704 17.58710834 100.35819679 15.48683538 100.28125 13.38671875 C100.25095703 12.45045654 100.22066406 11.51419434 100.18945312 10.54956055 C100.01797131 8.24184839 99.64289081 6.21660684 99 4 C98.34 4 97.68 4 97 4 C96.94465088 4.76666992 96.88930176 5.53333984 96.83227539 6.32324219 C96.5792989 9.79910225 96.32095958 13.27454354 96.0625 16.75 C95.97548828 17.9565625 95.88847656 19.163125 95.79882812 20.40625 C95.71181641 21.56640625 95.62480469 22.7265625 95.53515625 23.921875 C95.456604 24.99018555 95.37805176 26.05849609 95.29711914 27.15917969 C95 30 95 30 94.40405273 32.19238281 C93.78740692 34.22149062 93.78740692 34.22149062 95 37 C95.13973952 40.84283684 95.17851619 44.3171369 94 48 C90.78037779 46.9267926 89.43557837 45.36137572 87.625 42.625 C84.01742234 37.31322921 80.30942672 35.26188534 74 34 C73.01 30.7 72.02 27.4 71 24 C70.71125 25.381875 70.4225 26.76375 70.125 28.1875 C69.13491046 31.19513049 68.58095097 32.62560938 65.890625 34.359375 C64.17108043 35.09632267 62.44685097 35.82240886 60.71875 36.5390625 C55.76246467 39.20235376 52.4819296 43.66861414 49 48 C46.4152764 44.12291459 46.37217262 41.61494043 46 37 C46.33 36.67 46.66 36.34 47 36 C46.93237403 34.03884698 46.79207196 32.08019344 46.625 30.125 C46.13468427 23.96103084 45.75213498 17.80043707 45.4375 11.625 C45.39383301 10.77437988 45.35016602 9.92375977 45.30517578 9.04736328 C45.20234497 7.03163162 45.1010061 5.01582392 45 3 C44.34 3.33 43.68 3.66 43 4 C39.83971855 15.83556385 39.92984644 29.24181406 40.01171875 41.4296875 C40.00164601 44.49851482 39.59606965 47.01965173 39 50 C39.33 50.99 39.66 51.98 40 53 C40.12781786 55.67394964 40.04391871 58.32095857 40 61 C38.7934375 61.3403125 38.7934375 61.3403125 37.5625 61.6875 C36.716875 62.120625 35.87125 62.55375 35 63 C34.10613836 65.54775306 34.10613836 65.54775306 34 68 C33.01 68 32.02 68 31 68 C30.67 68.99 30.34 69.98 30 71 C29.9729509 67.93744039 29.95313702 64.8751214 29.9375 61.8125 C29.92912109 60.94818359 29.92074219 60.08386719 29.91210938 59.19335938 C29.8958898 54.96005062 30.07686293 51.14995855 31 47 C30.505 46.505 30.505 46.505 30 46 C29.95076316 44.20901 29.96390321 42.41630301 30 40.625 C30.04592568 34.7137085 29.86542068 28.84106226 29.5625 22.9375 C29.52318359 22.11652832 29.48386719 21.29555664 29.44335938 20.44970703 C29.40146484 19.67095215 29.35957031 18.89219727 29.31640625 18.08984375 C29.27974854 17.39753662 29.24309082 16.70522949 29.20532227 15.99194336 C28.98866868 13.89006866 28.67178407 12.00559658 28 10 C27.34 9.67 26.68 9.34 26 9 C25.91435791 9.70084717 25.82871582 10.40169434 25.74047852 11.1237793 C25.34977513 14.31192944 24.95616679 17.49971447 24.5625 20.6875 C24.42779297 21.79029297 24.29308594 22.89308594 24.15429688 24.02929688 C24.02216797 25.09599609 23.89003906 26.16269531 23.75390625 27.26171875 C23.63345947 28.24100342 23.5130127 29.22028809 23.38891602 30.22924805 C23 33 23 33 22.42163086 35.65942383 C21.88800691 38.6217011 22.47679755 41.05698623 23 44 C22.67 44.66 22.34 45.32 22 46 C21.92881794 49.51016537 22.00331834 53.00931886 22.0625 56.51953125 C22.00839975 59.53223866 21.62769674 62.07412325 21 65 C21.12375 66.6396875 21.12375 66.6396875 21.25 68.3125 C20.84704838 74.25603633 18.16641272 77.93482152 13.91015625 81.9921875 C9.09360513 85.96069629 6.35372346 87.18465044 0 89 C0 59.63 0 30.26 0 0 Z " fill="#F7F6F4" transform="translate(0,0)"/>
<path d="M0 0 C34.32 0 68.64 0 104 0 C104 34.32 104 68.64 104 104 C102.515 103.01 102.515 103.01 101 102 C101 101.34 101 100.68 101 100 C100.14728516 99.5978125 100.14728516 99.5978125 99.27734375 99.1875 C96.1036621 97.53261283 93.25116073 95.47906833 90.31640625 93.4375 C87.94681156 91.96699267 85.61352118 90.95875204 83 90 C83.05220703 88.12054688 83.05220703 88.12054688 83.10546875 86.203125 C83.13361128 84.55209676 83.16091094 82.90105399 83.1875 81.25 C83.21263672 80.425 83.23777344 79.6 83.26367188 78.75 C83.27333984 77.95078125 83.28300781 77.1515625 83.29296875 76.328125 C83.3086792 75.5949707 83.32438965 74.86181641 83.34057617 74.10644531 C83.14850237 71.88104112 83.14850237 71.88104112 81.52734375 70.04101562 C79.68666515 67.58128528 79.51038027 66.05402803 79.26953125 63.015625 C79.18896484 62.08105469 79.10839844 61.14648438 79.02539062 60.18359375 C78.95513672 59.21550781 78.88488281 58.24742188 78.8125 57.25 C78.73064453 56.26644531 78.64878906 55.28289063 78.56445312 54.26953125 C78.36453969 51.84705077 78.17683483 49.4242563 78 47 C77.01 47 76.02 47 75 47 C75.103125 48.216875 75.20625 49.43375 75.3125 50.6875 C75.34389429 57.25937098 72.77780796 63.13293288 70 69 C69.34 69.66 68.68 70.32 68 71 C67.75712511 73.44012949 67.75712511 73.44012949 67.875 76.125 C67.89304687 77.03507812 67.91109375 77.94515625 67.9296875 78.8828125 C67.95289063 79.58148438 67.97609375 80.28015625 68 81 C65.76709881 81.57607899 63.59181667 82.06644845 61.3125 82.4375 C60.1678125 82.7159375 60.1678125 82.7159375 59 83 C58.67 83.66 58.34 84.32 58 85 C54.73221269 83.62151156 53.21307565 82.19033515 51.1875 79.3125 C49.72969912 77.40847872 49.72969912 77.40847872 48 76 C44.42705543 76 42.17551166 76.41224417 39 78 C38.17797308 73.01322548 37.87627939 68.20984257 37.9375 63.15234375 C37.94128662 62.41859024 37.94507324 61.68483673 37.94897461 60.92884827 C37.96509186 57.82757287 37.99300278 54.7264363 38.02050781 51.62524414 C38.12344511 38.8921717 38.1434183 26.20408565 35.5 13.6875 C35.2421875 12.43324219 34.984375 11.17898437 34.71875 9.88671875 C34.29364202 7.12187042 34.29364202 7.12187042 33 6 C31.22585818 12.3404984 30.38549367 18.5108282 29.8125 25.0625 C29.67038086 26.49432617 29.67038086 26.49432617 29.52539062 27.95507812 C29.05053577 33.20748034 29.13870667 37.77200969 30 43 C30.14691374 46.06334523 30.14230131 49.12115108 30.125 52.1875 C30.12306641 53.01741455 30.12113281 53.8473291 30.11914062 54.70239258 C30.07396914 61.16881584 29.7186172 67.57094253 29 74 C28.3915625 73.66613281 27.783125 73.33226563 27.15625 72.98828125 C24.30650435 71.68214783 22.95084015 72.04097695 20 73 C17.73545927 74.46771271 17.73545927 74.46771271 16 76 C15.855625 75.236875 15.71125 74.47375 15.5625 73.6875 C13.68986666 70.46657066 12.89070405 70.39999866 9.4375 69.375 C8.63183594 69.17648438 7.82617188 68.97796875 6.99609375 68.7734375 C6.00802734 68.39058594 6.00802734 68.39058594 5 68 C3.77009225 64.31027676 3.89485537 60.92452337 3.9375 57.0859375 C3.94128662 56.31569244 3.94507324 55.54544739 3.94897461 54.75186157 C3.96119035 52.29285092 3.97982886 49.8339575 4 47.375 C4.02648225 44.13281587 4.04652099 40.89068844 4.0625 37.6484375 C4.07079834 36.89742767 4.07909668 36.14641785 4.08764648 35.37265015 C4.09620898 33.58154894 4.05332324 31.79032775 4 30 C3.67 29.67 3.34 29.34 3 29 C2.78426059 27.36641073 2.6288751 25.72475722 2.5 24.08203125 C2.4175 23.07462891 2.335 22.06722656 2.25 21.02929688 C2.1675 19.96775391 2.085 18.90621094 2 17.8125 C1.83558669 15.73549748 1.66898244 13.65866702 1.5 11.58203125 C1.4278125 10.65624268 1.355625 9.7304541 1.28125 8.77661133 C0.98329852 5.83511639 0.48605326 2.91631956 0 0 Z " fill="#F7F6F5" transform="translate(326,0)"/>
<path d="M0 0 C22.77 0 45.54 0 69 0 C70.47033743 4.4110123 71.27829492 7.16592894 71.59765625 11.58203125 C71.71657227 13.10280273 71.71657227 13.10280273 71.83789062 14.65429688 C71.91201172 15.69650391 71.98613281 16.73871094 72.0625 17.8125 C72.21605621 19.90264116 72.37339541 21.99250906 72.53515625 24.08203125 C72.600979 25.00218018 72.66680176 25.9223291 72.73461914 26.87036133 C72.77622468 28.98097178 72.77622468 28.98097178 74 30 C74.08861992 32.8116338 74.11522355 35.59858255 74.09765625 38.41015625 C74.09553383 39.67320839 74.09553383 39.67320839 74.09336853 40.96177673 C74.08775263 43.66205335 74.07519748 46.36224828 74.0625 49.0625 C74.05748705 50.88867068 74.05292379 52.71484266 74.04882812 54.54101562 C74.03777804 59.02737542 74.02050279 63.51367384 74 68 C75.28003906 68.13664062 76.56007813 68.27328125 77.87890625 68.4140625 C81.7578125 68.828125 81.7578125 68.828125 83.9375 70.375 C85 72 85 72 86 75 C86.53625 74.319375 87.0725 73.63875 87.625 72.9375 C90 71 90 71 93.1875 71.1875 C96 72 96 72 97 73 C97.87027008 66.08446099 98.10883085 59.211494 98.125 52.25 C98.12951172 51.44651123 98.13402344 50.64302246 98.13867188 49.81518555 C98.12998676 46.31399703 98.01150741 43.06992964 97.44140625 39.60546875 C96.83663904 34.66564457 97.3224939 29.99922812 97.8125 25.0625 C97.9372168 23.63647461 97.9372168 23.63647461 98.06445312 22.18164062 C98.58986251 16.61690323 99.3338564 11.34528598 101 6 C101.66 5.67 102.32 5.34 103 5 C103.48066535 6.89545392 103.95946743 8.79138039 104.4375 10.6875 C104.83775391 12.27111328 104.83775391 12.27111328 105.24609375 13.88671875 C106.73895214 20.05152776 107.30163134 25.86303875 107.5625 32.1875 C107.60568359 33.18257568 107.64886719 34.17765137 107.69335938 35.20288086 C108.04759624 44.26754927 108.06352324 53.3231126 107.96313477 62.39331055 C107.92243495 67.38155795 107.9128521 72.0993411 109 77 C110.485 76.01 110.485 76.01 112 75 C114.42578125 74.59765625 114.42578125 74.59765625 117 75 C119.16796875 76.93359375 119.16796875 76.93359375 121.1875 79.4375 C123.70187282 82.70544403 123.70187282 82.70544403 127 85 C127.66 83.68 128.32 82.36 129 81 C131.64 81 134.28 81 137 81 C136.88140625 80.34773438 136.7628125 79.69546875 136.640625 79.0234375 C135.56858148 71.75498242 135.56858148 71.75498242 137.75 67.9375 C138.86375 66.4834375 138.86375 66.4834375 140 65 C142.58555551 59.13493035 143.49589836 53.35168065 144 47 C144.99 47 145.98 47 147 47 C147.07516846 47.61520508 147.15033691 48.23041016 147.2277832 48.86425781 C147.57674727 51.66124572 147.94441278 54.45546718 148.3125 57.25 C148.43044922 58.21808594 148.54839844 59.18617187 148.66992188 60.18359375 C148.79560547 61.11816406 148.92128906 62.05273438 149.05078125 63.015625 C149.21574097 64.30388184 149.21574097 64.30388184 149.3840332 65.61816406 C150.08541066 68.33026809 151.26929487 69.83003988 153 72 C153.328125 74.296875 153.328125 74.296875 153.25 76.75 C153.22421875 77.61882812 153.1984375 78.48765625 153.171875 79.3828125 C152.9372278 82.95584942 152.52476118 86.45786206 152 90 C152.54527344 90.13535156 153.09054687 90.27070312 153.65234375 90.41015625 C161.35613545 92.60935832 168.77144032 96.95706781 173 104 C172.67 104.99 172.34 105.98 172 107 C171.48953125 106.43152344 170.9790625 105.86304687 170.453125 105.27734375 C165.26747596 99.76989025 160.04373359 95.93294559 153.40625 92.3125 C151 91 151 91 150 90 C150.00756867 86.47299764 150.07815777 82.95771487 150.21484375 79.43359375 C150.30612864 74.62868886 149.8007146 72.05497864 147 68 C146.38580992 65.31350447 146.23386275 62.75958041 146 60 C144.68531648 62.52823753 143.57663535 65.04077143 142.5 67.6875 C141 71 141 71 139 72 C139 75.3 139 78.6 139 82 C135 84 135 84 132.4375 83.9375 C129.91919277 83.72208355 129.91919277 83.72208355 128.4375 85.5625 C127.963125 86.036875 127.48875 86.51125 127 87 C124.20831953 86.76491112 123.11177135 86.10745498 121.078125 84.15234375 C120.47484375 83.42144531 119.8715625 82.69054687 119.25 81.9375 C118.63640625 81.20402344 118.0228125 80.47054687 117.390625 79.71484375 C116.93171875 79.14894531 116.4728125 78.58304687 116 78 C112.65569263 78.72366315 110.65737657 79.81715496 108 82 C105 80 105 80 104.60800171 78.19674683 C104.59991486 77.46779205 104.591828 76.73883728 104.58349609 75.98779297 C104.55864639 74.74411453 104.55864639 74.74411453 104.53329468 73.47531128 C104.52841537 72.12241501 104.52841537 72.12241501 104.5234375 70.7421875 C104.50006821 69.33841354 104.50006821 69.33841354 104.47622681 67.90628052 C104.42859611 64.89586404 104.40099143 61.88567432 104.375 58.875 C104.32617661 54.95563799 104.26968673 51.03641227 104.2109375 47.1171875 C104.19060455 45.68811066 104.19060455 45.68811066 104.16986084 44.23016357 C104.31800686 29.95223484 104.31800686 29.95223484 102 16 C101.6372181 20.14512736 101.28621489 24.29116742 100.9375 28.4375 C100.7818457 30.21350586 100.7818457 30.21350586 100.62304688 32.02539062 C100.52958984 33.15009766 100.43613281 34.27480469 100.33984375 35.43359375 C100.25081787 36.47572021 100.16179199 37.51784668 100.07006836 38.59155273 C100.0469458 39.38634033 100.02382324 40.18112793 100 41 C100.33 41.33 100.66 41.66 101 42 C101.10028446 44.24429055 101.13081419 46.49175214 101.1328125 48.73828125 C101.13424759 49.75404488 101.13424759 49.75404488 101.13571167 50.79032898 C101.13639357 52.22700086 101.1345386 53.6636758 101.13037109 55.1003418 C101.12504764 57.29287726 101.1303028 59.48520554 101.13671875 61.67773438 C101.13605748 63.07291712 101.13477532 64.46809973 101.1328125 65.86328125 C101.13168457 67.13469971 101.13055664 68.40611816 101.12939453 69.71606445 C101.02507693 72.36356656 100.79298886 74.49385597 100 77 C96.85262818 76.30058404 93.97411124 75.23921302 91 74 C90.443125 74.825 89.88625 75.65 89.3125 76.5 C87 79 87 79 84.25 79.3125 C83.5075 79.209375 82.765 79.10625 82 79 C82 77.02 82 75.04 82 73 C81.28972656 72.73445313 80.57945312 72.46890625 79.84765625 72.1953125 C78.92855469 71.84210938 78.00945312 71.48890625 77.0625 71.125 C76.14597656 70.77695313 75.22945313 70.42890625 74.28515625 70.0703125 C72 69 72 69 71 67 C70.8330685 64.76227029 70.72624579 62.51994185 70.6484375 60.27734375 C70.61370834 59.28632408 70.61370834 59.28632408 70.57827759 58.27528381 C70.53066674 56.87915613 70.48542916 55.4829458 70.44238281 54.08666992 C70.3751483 51.94223008 70.29743963 49.79834343 70.21875 47.65429688 C70.17384735 46.29949996 70.12955558 44.94468263 70.0859375 43.58984375 C70.0247876 41.73153931 70.0247876 41.73153931 69.96240234 39.83569336 C70 37 70 37 71 36 C71.16666667 33.5 71.16666667 33.5 71 31 C70.67 30.67 70.34 30.34 70 30 C69.6068352 28.32115762 69.25914548 26.63149955 68.9375 24.9375 C68.76089844 24.01839844 68.58429688 23.09929688 68.40234375 22.15234375 C68.26957031 21.44207031 68.13679688 20.73179688 68 20 C67.63818911 22.29047223 67.28576776 24.58242945 66.9375 26.875 C66.74027344 28.15117187 66.54304688 29.42734375 66.33984375 30.7421875 C65.71719271 33.88238542 65.71719271 33.88238542 67 36 C67.08527628 38.03232634 67.10716135 40.06747006 67.09765625 42.1015625 C67.09443359 43.31328125 67.09121094 44.525 67.08789062 45.7734375 C67.07951172 47.04445312 67.07113281 48.31546875 67.0625 49.625 C67.05798828 50.90375 67.05347656 52.1825 67.04882812 53.5 C67.03701203 56.66671292 67.02053815 59.83333356 67 63 C63.10599933 59.4798234 62.4049859 57.26481665 62 52 C61.29875 52 60.5975 52 59.875 52 C56.55161695 50.84404068 56.07014595 50.00587008 54.125 47.1875 C49.41450464 40.47023748 43.74279411 38.83727318 36 37 C35.34 36.34 34.68 35.68 34 35 C33.67 35.66 33.34 36.32 33 37 C31.824375 37.268125 30.64875 37.53625 29.4375 37.8125 C22.97008899 39.3192445 17.95666477 42.18682063 14.3125 47.8125 C13.1678125 49.3903125 13.1678125 49.3903125 12 51 C9.1875 51.4375 9.1875 51.4375 7 51 C6.67 53.31 6.34 55.62 6 58 C4.515 58.495 4.515 58.495 3 59 C2.16845723 56.09455489 1.87161666 53.50675118 1.8671875 50.48828125 C1.86589844 49.64845703 1.86460937 48.80863281 1.86328125 47.94335938 C1.86714844 47.07517578 1.87101562 46.20699219 1.875 45.3125 C1.87113281 44.43271484 1.86726563 43.55292969 1.86328125 42.64648438 C1.86521484 41.39254883 1.86521484 41.39254883 1.8671875 40.11328125 C1.86831543 39.34798096 1.86944336 38.58268066 1.87060547 37.79418945 C2 36 2 36 3 35 C2.79486834 33.39313537 2.58079817 31.78695614 2.32421875 30.1875 C1.72485996 26.1436335 1.38479249 22.0689759 1 18 C0.95101563 18.85464844 0.90203125 19.70929687 0.8515625 20.58984375 C0.77679688 21.69457031 0.70203125 22.79929687 0.625 23.9375 C0.55539062 25.03964844 0.48578125 26.14179688 0.4140625 27.27734375 C0.27742188 28.17582031 0.14078125 29.07429688 0 30 C-0.66 30.33 -1.32 30.66 -2 31 C-2.042721 32.66611905 -2.04063832 34.33382885 -2 36 C-1.67 36.33 -1.34 36.66 -1 37 C-0.71684437 41.57682459 -0.76812068 46.16546882 -0.75 50.75 C-0.7190625 52.68359375 -0.7190625 52.68359375 -0.6875 54.65625 C-0.68234375 55.89890625 -0.6771875 57.1415625 -0.671875 58.421875 C-0.6625293 59.56237305 -0.65318359 60.70287109 -0.64355469 61.87792969 C-1.039947 65.3498919 -1.918531 67.21975438 -4 70 C-6.65453082 71.20291358 -9.09815161 71.47671586 -12 72 C-12.33 74.31 -12.66 76.62 -13 79 C-16.24208567 78.64950425 -17.61527704 78.43778819 -19.8125 75.9375 C-20.4003125 74.9784375 -20.4003125 74.9784375 -21 74 C-24.93075644 74.57452746 -24.93075644 74.57452746 -28 77 C-28.99 77 -29.98 77 -31 77 C-32.26809183 70.16639403 -32.14730136 63.36950547 -32.125 56.4375 C-32.12886719 55.23158203 -32.13273438 54.02566406 -32.13671875 52.78320312 C-32.13478516 51.03233398 -32.13478516 51.03233398 -32.1328125 49.24609375 C-32.13168457 48.19091553 -32.13055664 47.1357373 -32.12939453 46.04858398 C-32 43 -32 43 -31.47045898 39.93334961 C-31.0075935 37.04734609 -31.03597603 34.71599311 -31.33984375 31.8203125 C-31.43330078 30.8921875 -31.52675781 29.9640625 -31.62304688 29.0078125 C-31.72681641 28.05648438 -31.83058594 27.10515625 -31.9375 26.125 C-32.03740234 25.15046875 -32.13730469 24.1759375 -32.24023438 23.171875 C-32.48641366 20.7804191 -32.73986063 18.38997076 -33 16 C-34.87856938 29.80413032 -35.17969724 43.40749212 -35.01367188 57.31030273 C-34.9321909 64.93720298 -35.09267871 72.41960631 -36 80 C-40.14957466 80.97035012 -42.05068871 80.88616975 -45.9375 79.0625 C-49.82002275 77.24737447 -52.6963895 76.48176418 -57 77 C-59.53911586 78.53396279 -59.53911586 78.53396279 -61.8125 80.6875 C-72.34984421 89.62202529 -72.34984421 89.62202529 -78.640625 90.2734375 C-81 90 -81 90 -82.9375 87.625 C-83.618125 86.75875 -84.29875 85.8925 -85 85 C-88.06179132 83.81769957 -88.06179132 83.81769957 -91 83 C-90.99476318 82.32646484 -90.98952637 81.65292969 -90.98413086 80.95898438 C-90.89642057 67.92900995 -90.91576465 54.99146286 -92 42 C-92.06058594 43.03640625 -92.12117187 44.0728125 -92.18359375 45.140625 C-92.26803371 46.51042873 -92.35267997 47.88021975 -92.4375 49.25 C-92.47681641 49.93191406 -92.51613281 50.61382812 -92.55664062 51.31640625 C-92.89011392 56.60067543 -92.89011392 56.60067543 -93.59765625 59.171875 C-94.14348225 61.65193877 -93.54673507 63.53411327 -93 66 C-92.62515878 71.98874234 -92.57906514 77.40158814 -95 83 C-96.88802083 82.67447917 -98.77604167 82.34895833 -100.6640625 82.0234375 C-103.73057372 81.99266983 -106.14921547 82.92993475 -109 84 C-109.02909763 80.75001888 -109.04683161 77.50007143 -109.0625 74.25 C-109.07087891 73.32960938 -109.07925781 72.40921875 -109.08789062 71.4609375 C-109.09111328 70.57148437 -109.09433594 69.68203125 -109.09765625 68.765625 C-109.10289307 67.94868164 -109.10812988 67.13173828 -109.11352539 66.29003906 C-109.00264166 64.05328764 -108.55487701 62.16044316 -108 60 C-108.05995238 57.76813649 -108.19061801 55.53754209 -108.375 53.3125 C-108.51035156 51.57419922 -108.51035156 51.57419922 -108.6484375 49.80078125 C-108.69669029 47.09879836 -108.69669029 47.09879836 -110 46 C-110.71125207 57.68485544 -111.14534014 69.29204426 -111 81 C-114.93260396 80.46745988 -117.01748039 79.46065208 -120 76.875 C-123.02142994 74.41708396 -123.02142994 74.41708396 -126.8125 73.9375 C-129.05467265 75.02655529 -130.41846916 76.0855153 -132 78 C-134.93364327 76.98839887 -135.99671209 76.00464842 -137.8125 73.4375 C-139.3503989 68.98568739 -138.84102896 65.55979556 -138 61 C-138.66 61 -139.32 61 -140 61 C-140.1799928 55.78020872 -139.97094808 51.92737019 -138 47 C-138.66 47 -139.32 47 -140 47 C-139.98839844 46.14535156 -139.97679687 45.29070313 -139.96484375 44.41015625 C-139.95582031 43.30542969 -139.94679688 42.20070312 -139.9375 41.0625 C-139.92589844 39.96035156 -139.91429687 38.85820313 -139.90234375 37.72265625 C-139.68737429 35.08552366 -139.68737429 35.08552366 -141 34 C-141.23653523 31.47403741 -141.42173692 28.96892793 -141.5625 26.4375 C-141.60568359 25.72658203 -141.64886719 25.01566406 -141.69335938 24.28320312 C-141.79971777 22.52238088 -141.90038846 20.7612168 -142 19 C-142.16971023 21.97902065 -142.33583751 24.95817256 -142.5 27.9375 C-142.54769531 28.76830078 -142.59539062 29.59910156 -142.64453125 30.45507812 C-142.9453639 35.97750602 -143.04846505 41.47027201 -143 47 C-143 48.32 -143 49.64 -143 51 C-142.9888811 52.7109415 -142.97710684 54.42187881 -142.96484375 56.1328125 C-142.95555971 58.13020755 -142.9464512 60.12760343 -142.9375 62.125 C-142.92912109 63.13949219 -142.92074219 64.15398437 -142.91210938 65.19921875 C-142.90888672 66.16730469 -142.90566406 67.13539062 -142.90234375 68.1328125 C-142.89710693 69.01855957 -142.89187012 69.90430664 -142.88647461 70.81689453 C-143 73 -143 73 -144 75 C-147.80625982 73.50468364 -149.77940501 71.41019944 -152 68 C-152.25 65.1875 -152.25 65.1875 -152 63 C-152.804375 62.855625 -153.60875 62.71125 -154.4375 62.5625 C-157 62 -157 62 -158 61 C-158.33694303 56.20351694 -158.02675263 51.69372633 -157 47 C-157.33 46.67 -157.66 46.34 -158 46 C-158.04860749 43.97975133 -158.03644653 41.95800464 -158 39.9375 C-157.93397089 31.92321624 -158.41890389 23.9900715 -159 16 C-159.19613594 19.02049342 -159.38214855 22.04105658 -159.5625 25.0625 C-159.61857422 25.91005859 -159.67464844 26.75761719 -159.73242188 27.63085938 C-160.02003186 32.59692505 -159.79237947 37.06619969 -159 42 C-159.27313343 44.34114367 -159.59802999 46.67750658 -160 49 C-160 49.99 -160 50.98 -160 52 C-165.27202863 50.71060371 -167.4536757 48.75685273 -170.8125 44.5625 C-174.69122529 40.05495106 -177.43724976 37.71358177 -183.28515625 36.5625 C-183.85105469 36.376875 -184.41695313 36.19125 -185 36 C-185.33 35.01 -185.66 34.02 -186 33 C-186.66 33.99 -187.32 34.98 -188 36 C-189.77734375 36.52734375 -189.77734375 36.52734375 -191.9375 36.9375 C-197.58216741 38.59071165 -200.56668964 42.40580221 -204.19311523 46.79663086 C-207.57573394 50.84170241 -207.57573394 50.84170241 -210.32421875 51.8671875 C-210.87722656 51.91101562 -211.43023437 51.95484375 -212 52 C-211.979375 50.865625 -211.95875 49.73125 -211.9375 48.5625 C-211.58422523 45.18424326 -211.58422523 45.18424326 -213 44 C-213.23357496 37.81026349 -213.23357496 37.81026349 -212.43359375 35.03515625 C-211.91600468 32.60575168 -212.26450178 31.12528783 -212.9375 28.75 C-213.288125 27.5125 -213.63875 26.275 -214 25 C-214.93471081 33.23505261 -215.09336625 41.34341357 -215 49.625 C-214.97464039 51.95047588 -214.95355679 54.27600378 -214.9375 56.6015625 C-214.92589844 57.61557129 -214.91429687 58.62958008 -214.90234375 59.67431641 C-215 62 -215 62 -216 63 C-217.66617115 63.04063832 -219.33388095 63.042721 -221 63 C-221 64.98 -221 66.96 -221 69 C-221.99 69.33 -222.98 69.66 -224 70 C-225.21869929 72.50447516 -225.21869929 72.50447516 -226 75 C-227.485 74.505 -227.485 74.505 -229 74 C-228.99476318 72.8668335 -228.98952637 71.73366699 -228.98413086 70.56616211 C-228.96578204 66.28882666 -228.9544609 62.01149456 -228.94506836 57.73413086 C-228.94009545 55.89655977 -228.93331475 54.05899251 -228.92456055 52.22143555 C-228.87296227 41.09745457 -229.05653704 30.08861488 -230 19 C-230.21571655 20.68258911 -230.21571655 20.68258911 -230.43579102 22.39916992 C-230.60135498 23.69056885 -230.76691895 24.98196777 -230.9375 26.3125 C-231.03281006 27.06829346 -231.12812012 27.82408691 -231.22631836 28.6027832 C-231.60994515 31.5347599 -232.06250168 34.18750504 -233 37 C-232.67 37.66 -232.34 38.32 -232 39 C-231.86584528 41.6723621 -231.95681459 44.32250488 -232 47 C-232.66 47 -233.32 47 -234 47 C-233.67 48.03125 -233.34 49.0625 -233 50.125 C-231.52460093 55.31505631 -231.88015721 59.774067 -233 65 C-233.0928125 66.85625 -233.0928125 66.85625 -233.1875 68.75 C-234.11935109 76.13526762 -238.94603378 81.41807309 -244.5625 85.9375 C-248.48123046 88.89226468 -252.00448727 91 -257 91 C-257 90.34 -257 89.68 -257 89 C-256.35933594 88.70867187 -255.71867188 88.41734375 -255.05859375 88.1171875 C-248.18232969 84.85839172 -242.55969249 81.5505412 -238.0625 75.3125 C-236.74064996 71.19143812 -236.81818042 67.5909436 -236.9921875 63.29296875 C-236.99605469 62.15794922 -236.99605469 62.15794922 -237 61 C-236.67 60.67 -236.34 60.34 -236 60 C-235.92655635 56.53437791 -236.00394499 53.07900563 -236.0625 49.61328125 C-236.00494417 46.28583507 -235.55742765 43.27024224 -235 40 C-235.30262289 37.99512332 -235.62913819 35.99338221 -236 34 C-235.67 33.67 -235.34 33.34 -235 33 C-234.71491101 31.39413549 -234.48551807 29.77828824 -234.28125 28.16015625 C-234.15363281 27.17982422 -234.02601563 26.19949219 -233.89453125 25.18945312 C-233.76433594 24.15755859 -233.63414062 23.12566406 -233.5 22.0625 C-233.24286275 20.03213407 -232.98259893 18.0021609 -232.71875 15.97265625 C-232.60466797 15.06781494 -232.49058594 14.16297363 -232.37304688 13.23071289 C-232 11 -232 11 -231 9 C-230.01 9.33 -229.02 9.66 -228 10 C-226.79195995 13.09673448 -226.80658347 16.31904899 -226.68359375 19.61328125 C-226.64169922 20.69673828 -226.59980469 21.78019531 -226.55664062 22.89648438 C-226.51732422 24.02376953 -226.47800781 25.15105469 -226.4375 26.3125 C-226.39431641 27.42818359 -226.35113281 28.54386719 -226.30664062 29.69335938 C-225.97211192 38.65129458 -225.97211192 38.65129458 -226.0078125 43.11328125 C-226.00030333 45.88791869 -225.55698729 48.29463317 -225 51 C-225.33 51.33 -225.66 51.66 -226 52 C-226.07319621 54.69654854 -226.09242537 57.36691458 -226.0625 60.0625 C-226.05798828 60.82111328 -226.05347656 61.57972656 -226.04882812 62.36132812 C-226.0370068 64.24091871 -226.01907078 66.12046899 -226 68 C-225.01 68 -224.02 68 -223 68 C-223.04125 67.21625 -223.0825 66.4325 -223.125 65.625 C-223 63 -223 63 -221 61 C-219.68 61 -218.36 61 -217 61 C-217.15597656 60.26394531 -217.31195313 59.52789062 -217.47265625 58.76953125 C-217.66730469 57.79371094 -217.86195313 56.81789062 -218.0625 55.8125 C-218.35833984 54.36810547 -218.35833984 54.36810547 -218.66015625 52.89453125 C-219.00962248 49.91804302 -218.65034787 47.89908593 -218 45 C-217.98058548 43.2083174 -218.00607441 41.41589911 -218.0625 39.625 C-218.11519269 33.06852423 -217.67167983 26.59488689 -217.125 20.0625 C-217.04644775 19.06750488 -216.96789551 18.07250977 -216.88696289 17.04736328 C-216.4504749 12.08875906 -215.877914 7.66322342 -214 3 C-213.34 3 -212.68 3 -212 3 C-211.49453917 7.37438707 -210.99659468 11.74959827 -210.5 16.125 C-210.35691406 17.3625 -210.21382812 18.6 -210.06640625 19.875 C-209.86337891 21.67324219 -209.86337891 21.67324219 -209.65625 23.5078125 C-209.53056641 24.60754395 -209.40488281 25.70727539 -209.27539062 26.84033203 C-209.00687996 29.92106343 -208.8795955 32.9098072 -209 36 C-209.33 36.33 -209.66 36.66 -210 37 C-209.63252506 42.1761903 -209.63252506 42.1761903 -208 47 C-207.38253906 46.24074219 -206.76507813 45.48148438 -206.12890625 44.69921875 C-200.92085509 38.58748748 -197.10369481 34.69916182 -189 33 C-188.34 29.7 -187.68 26.4 -187 23 C-183.09618178 26.90381822 -183.43755817 28.66179036 -183 34 C-181.96875 34.061875 -180.9375 34.12375 -179.875 34.1875 C-172.31626025 35.77239704 -169.15102152 41.00408003 -165 47 C-164.34 47.33 -163.68 47.66 -163 48 C-162.90705153 42.19588463 -162.94492265 36.72756276 -164 31 C-163.505 30.505 -163.505 30.505 -163 30 C-162.7714679 28.0769127 -162.60481143 26.14639772 -162.46484375 24.21484375 C-162.37783203 23.04501953 -162.29082031 21.87519531 -162.20117188 20.66992188 C-162.11416016 19.43822266 -162.02714844 18.20652344 -161.9375 16.9375 C-161.84662109 15.70193359 -161.75574219 14.46636719 -161.66210938 13.19335938 C-161.43732402 10.12918006 -161.2168144 7.06475198 -161 4 C-159.68 4 -158.36 4 -157 4 C-156.10002938 7.11938198 -155.82653441 10.00539489 -155.71875 13.24609375 C-155.66267578 14.74946289 -155.66267578 14.74946289 -155.60546875 16.28320312 C-155.55326172 17.84458008 -155.55326172 17.84458008 -155.5 19.4375 C-155.43081937 21.49882669 -155.35802672 23.56003601 -155.28125 25.62109375 C-155.25095703 26.5330249 -155.22066406 27.44495605 -155.18945312 28.38452148 C-155.05534805 31.04324783 -155.05534805 31.04324783 -154.41992188 33.77368164 C-154.28134766 34.5083667 -154.14277344 35.24305176 -154 36 C-154.33 36.33 -154.66 36.66 -155 37 C-155.16666667 40.5 -155.16666667 40.5 -155 44 C-154.67 44.33 -154.34 44.66 -154 45 C-154.090916 47.70108504 -154.23740766 50.36930311 -154.4375 53.0625 C-154.48970703 53.82111328 -154.54191406 54.57972656 -154.59570312 55.36132812 C-154.72575835 57.24121722 -154.86228038 59.12065685 -155 61 C-153.35 61.33 -151.7 61.66 -150 62 C-149.896875 62.763125 -149.79375 63.52625 -149.6875 64.3125 C-148.94209384 67.22636046 -148.15541061 68.02950397 -146 70 C-146.08378906 69.36191406 -146.16757813 68.72382812 -146.25390625 68.06640625 C-146.40666016 66.82697266 -146.40666016 66.82697266 -146.5625 65.5625 C-146.71912109 64.32693359 -146.71912109 64.32693359 -146.87890625 63.06640625 C-146.93884766 62.04353516 -146.93884766 62.04353516 -147 61 C-146.67 60.67 -146.34 60.34 -146 60 C-145.81063108 54.80717189 -145.81063108 54.80717189 -146.50390625 49.69140625 C-147.12554198 46.31891005 -147.09452754 43.11444631 -147.0625 39.6875 C-147.05347656 38.43324219 -147.04445313 37.17898437 -147.03515625 35.88671875 C-147.02355469 34.93410156 -147.01195312 33.98148438 -147 33 C-146.34 33 -145.68 33 -145 33 C-145.00523682 32.37955811 -145.01047363 31.75911621 -145.01586914 31.11987305 C-145.03665466 28.30909233 -145.04966517 25.49832779 -145.0625 22.6875 C-145.07087891 21.71103516 -145.07925781 20.73457031 -145.08789062 19.72851562 C-145.09111328 18.79072266 -145.09433594 17.85292969 -145.09765625 16.88671875 C-145.10289307 16.02264404 -145.10812988 15.15856934 -145.11352539 14.26831055 C-145 12 -145 12 -144 9 C-143.01 9.33 -142.02 9.66 -141 10 C-140.82609741 11.0058313 -140.82609741 11.0058313 -140.64868164 12.03198242 C-140.12062599 15.08393825 -139.59157278 18.13572034 -139.0625 21.1875 C-138.78889648 22.77014648 -138.78889648 22.77014648 -138.50976562 24.38476562 C-138.33251953 25.40634766 -138.15527344 26.42792969 -137.97265625 27.48046875 C-137.81031494 28.41785889 -137.64797363 29.35524902 -137.48071289 30.32104492 C-137.15267788 32.14914453 -136.78269417 33.97008797 -136.37670898 35.7824707 C-136.19023804 36.88014771 -136.19023804 36.88014771 -136 38 C-136.33 38.33 -136.66 38.66 -137 39 C-137.16666667 42 -137.16666667 42 -137 45 C-136.67 45.33 -136.34 45.66 -136 46 C-136.18152776 49.37641643 -136.5218105 52.72801883 -136.84375 56.09375 C-136.92109375 57.53234375 -136.92109375 57.53234375 -137 59 C-136.67 59.33 -136.34 59.66 -136 60 C-135.97942977 61.39583724 -136.00875806 62.79254605 -136.0625 64.1875 C-136.11982332 68.17465505 -135.52863854 71.27394355 -134 75 C-133.2265625 74.01 -133.2265625 74.01 -132.4375 73 C-130 71 -130 71 -126.875 70.3125 C-121.21245311 71.31714542 -117.45076572 74.4895369 -113 78 C-113.19078125 76.93007812 -113.3815625 75.86015625 -113.578125 74.7578125 C-115.78307158 60.36485569 -113.7185705 47.21010441 -111 33 C-110.34 33 -109.68 33 -109 33 C-106.63979346 38.77603287 -106.30545376 44.59763141 -105.8125 50.75 C-105.71775391 51.80316406 -105.62300781 52.85632812 -105.52539062 53.94140625 C-104.86971583 61.73943166 -104.86971583 61.73943166 -106 64 C-106.23274209 66.87910588 -106.41972757 69.74146495 -106.5625 72.625 C-106.60568359 73.42679687 -106.64886719 74.22859375 -106.69335938 75.0546875 C-106.79951457 77.0362511 -106.90026855 79.01810271 -107 81 C-106.39414063 80.49984375 -105.78828125 79.9996875 -105.1640625 79.484375 C-103 78 -103 78 -100.375 78.25 C-98 79 -98 79 -96 80 C-96.0611499 79.0884314 -96.0611499 79.0884314 -96.12353516 78.15844727 C-97.15927631 61.93947411 -97.03005192 46.83234683 -93 31 C-89.90205693 33.50327681 -89.48487929 35.51279762 -89.015625 39.40234375 C-88.88542969 40.45744141 -88.75523437 41.51253906 -88.62109375 42.59960938 C-88.49863281 43.70111328 -88.37617188 44.80261719 -88.25 45.9375 C-88.11207031 47.03513672 -87.97414062 48.13277344 -87.83203125 49.26367188 C-86.82133581 57.80248543 -86.82133581 57.80248543 -88 62 C-88.1421701 63.58567839 -88.24504041 65.17518632 -88.31640625 66.765625 C-88.35830078 67.65507813 -88.40019531 68.54453125 -88.44335938 69.4609375 C-88.48267578 70.38132812 -88.52199219 71.30171875 -88.5625 72.25 C-88.62727539 73.65378906 -88.62727539 73.65378906 -88.69335938 75.0859375 C-88.7991805 77.39048641 -88.90126557 79.69513839 -89 82 C-87.68 81.67 -86.36 81.34 -85 81 C-84.2265625 82.2375 -84.2265625 82.2375 -83.4375 83.5 C-81.20532312 86.28015888 -81.20532312 86.28015888 -77.87890625 86.53125 C-72.55678969 85.80233978 -69.63140714 83.28147544 -65.5 80 C-58.28489016 74.26921508 -58.28489016 74.26921508 -53.71875 73.3125 C-48.12685472 74.34629577 -43.14826636 76.63298098 -38 79 C-38.01047363 77.7718457 -38.02094727 76.54369141 -38.03173828 75.27832031 C-38.0685832 70.61884606 -38.09112904 65.95938395 -38.10986328 61.29980469 C-38.11977682 59.30238666 -38.13331164 57.30498256 -38.15087891 55.30761719 C-38.29554398 38.40733259 -37.8570775 21.53033216 -34 5 C-33.34 5 -32.68 5 -32 5 C-29.9244483 13.02546657 -28.7887929 20.65578798 -28.4375 28.9375 C-28.3950415 29.91082275 -28.35258301 30.88414551 -28.30883789 31.88696289 C-27.78026283 45.58418274 -27.91233222 59.29550272 -28 73 C-27.01 72.34 -26.02 71.68 -25 71 C-22.5 70.625 -22.5 70.625 -20 71 C-18.1875 73 -18.1875 73 -17 75 C-16.690625 74.236875 -16.38125 73.47375 -16.0625 72.6875 C-13.40528893 69.22507346 -11.1023783 68.84279103 -6.9609375 67.87109375 C-6.31382812 67.58363281 -5.66671875 67.29617187 -5 67 C-3.7914181 63.70089806 -3.87088585 60.43902456 -3.8671875 56.95703125 C-3.86525391 55.22356445 -3.86525391 55.22356445 -3.86328125 53.45507812 C-3.86714844 52.25302734 -3.87101563 51.05097656 -3.875 49.8125 C-3.87113281 48.59884766 -3.86726562 47.38519531 -3.86328125 46.13476562 C-3.86457031 44.98298828 -3.86585938 43.83121094 -3.8671875 42.64453125 C-3.86887939 41.05668823 -3.86887939 41.05668823 -3.87060547 39.43676758 C-3.72491799 37.05220975 -3.72491799 37.05220975 -5 36 C-5.125 33 -5.125 33 -5 30 C-4.67 29.67 -4.34 29.34 -4 29 C-3.71274342 27.02849495 -3.48436424 25.048348 -3.28125 23.06640625 C-3.15363281 21.86048828 -3.02601563 20.65457031 -2.89453125 19.41210938 C-2.69923828 17.50655273 -2.69923828 17.50655273 -2.5 15.5625 C-2.24309899 13.06343818 -1.98285335 10.56471719 -1.71875 8.06640625 C-1.54762695 6.3949353 -1.54762695 6.3949353 -1.37304688 4.68969727 C-1 2 -1 2 0 0 Z " fill="#C5A86F" transform="translate(257,0)"/>
<path d="M0 0 C21.45 0 42.9 0 65 0 C63.9340294 21.31941204 63.9340294 21.31941204 62.34375 28.06640625 C61.79766363 31.13814209 62.489897 33.93938203 63 37 C63.09778116 41.667764 63.05827149 46.33180642 63 51 C58.27114144 49.45588292 55.67606437 47.92995254 52.5 44.0625 C47.66619636 38.18209156 42.3152603 35.79149232 35 34 C34.505 31.03 34.505 31.03 34 28 C33.01 28.495 33.01 28.495 32 29 C31.74734375 29.7940625 31.4946875 30.588125 31.234375 31.40625 C30 34 30 34 27.390625 35.40625 C25.83601563 35.94765625 25.83601563 35.94765625 24.25 36.5 C18.18658053 38.82370566 13.72285119 40.84143948 10.5 46.75 C9 49 9 49 5.875 49.6875 C4.451875 49.8421875 4.451875 49.8421875 3 50 C2.67 50.66 2.34 51.32 2 52 C1.97314905 49.52076199 1.95323453 47.0418116 1.9375 44.5625 C1.92493164 43.50192383 1.92493164 43.50192383 1.91210938 42.41992188 C1.90346412 40.61306441 1.94779989 38.80612397 2 37 C2.495 36.505 2.495 36.505 3 36 C3.30523962 31.34911285 3.30523962 31.34911285 2 27 C1.34 18.09 0.68 9.18 0 0 Z " fill="#F7F6F4" transform="translate(259,0)"/>
<path d="M0 0 C0.33 0 0.66 0 1 0 C1.31040012 3.95047785 1.61336928 7.90144778 1.90942383 11.85302734 C2.01121539 13.19758512 2.11504632 14.54199011 2.22094727 15.88623047 C2.37269911 17.81696986 2.51654217 19.74832575 2.66015625 21.6796875 C2.74918213 22.84226074 2.83820801 24.00483398 2.92993164 25.20263672 C3 28 3 28 2 30 C1.91350549 32.48099734 1.88434946 34.93344928 1.90234375 37.4140625 C1.90446617 38.50852188 1.90446617 38.50852188 1.90663147 39.62509155 C1.91223469 41.95843585 1.92478765 44.29168464 1.9375 46.625 C1.94251459 48.20572778 1.94707757 49.78645707 1.95117188 51.3671875 C1.96220516 55.24482854 1.97947189 59.12239807 2 63 C1.67 63 1.34 63 1 63 C0.67 61.35 0.34 59.7 0 58 C-0.03738281 58.61488281 -0.07476562 59.22976562 -0.11328125 59.86328125 C-0.17902344 60.67152344 -0.24476563 61.47976562 -0.3125 62.3125 C-0.37050781 63.11300781 -0.42851562 63.91351563 -0.48828125 64.73828125 C-1.0908006 67.4013248 -1.80873935 68.39869414 -4 70 C-6.6875 69.6875 -6.6875 69.6875 -9 69 C-8.505 68.01 -8.505 68.01 -8 67 C-6.68 67 -5.36 67 -4 67 C-3.00905546 58.72095945 -2.93955998 50.52972359 -3.03909302 42.2053833 C-3.38905063 10.16715188 -3.38905063 10.16715188 0 0 Z " fill="#FBF5E7" transform="translate(224,13)"/>
<path d="M0 0 C0.33 0 0.66 0 1 0 C4.05608572 17.0524447 3.10953757 34.74362041 3 52 C2.67 52 2.34 52 2 52 C1.67 49.36 1.34 46.72 1 44 C0.98018066 44.56509277 0.96036133 45.13018555 0.93994141 45.71240234 C0.84481764 48.26707997 0.73508942 50.82092541 0.625 53.375 C0.5940625 54.26445313 0.563125 55.15390625 0.53125 56.0703125 C0.49257813 56.92109375 0.45390625 57.771875 0.4140625 58.6484375 C0.36693115 59.82672119 0.36693115 59.82672119 0.31884766 61.02880859 C0 63 0 63 -2 65 C-2.66 64.34 -3.32 63.68 -4 63 C-3.34 63 -2.68 63 -2 63 C-1.97522059 58.1070187 -1.95710237 53.2140742 -1.94506836 48.32104492 C-1.94004977 46.65762699 -1.93323348 44.99421344 -1.92456055 43.33081055 C-1.91238643 40.93537307 -1.90674686 38.53999409 -1.90234375 36.14453125 C-1.89460182 35.03486748 -1.89460182 35.03486748 -1.88670349 33.90278625 C-1.88629516 30.11664413 -2.23844257 26.69541337 -3 23 C-2.94580078 20.53637695 -2.94580078 20.53637695 -2.6953125 17.98828125 C-2.60636719 17.06595703 -2.51742188 16.14363281 -2.42578125 15.19335938 C-2.32652344 14.24267578 -2.22726562 13.29199219 -2.125 12.3125 C-2.03347656 11.35021484 -1.94195312 10.38792969 -1.84765625 9.39648438 C-1.13813267 2.27626534 -1.13813267 2.27626534 0 0 Z " fill="#F7EBD3" transform="translate(359,14)"/>
<path d="M0 0 C0.33 0 0.66 0 1 0 C1.70986271 11.23104211 2.10572538 22.4327255 2.125 33.6875 C2.12951172 34.77272949 2.13402344 35.85795898 2.13867188 36.97607422 C2.12738023 43.06697351 1.79681661 48.96063605 1 55 C0.67 55 0.34 55 0 55 C0 51.04 0 47.08 0 43 C-2.33075929 43.95865509 -2.33075929 43.95865509 -4 47 C-3.91621094 46.28714844 -3.83242188 45.57429688 -3.74609375 44.83984375 C-3.15810839 39.30980427 -2.90805694 34.45971529 -4 29 C-3.34 29 -2.68 29 -2 29 C-2.15597656 28.14535156 -2.31195312 27.29070313 -2.47265625 26.41015625 C-2.76462891 24.75306641 -2.76462891 24.75306641 -3.0625 23.0625 C-3.25972656 21.96035156 -3.45695312 20.85820313 -3.66015625 19.72265625 C-3.77230469 18.82417969 -3.88445313 17.92570312 -4 17 C-3.67 16.67 -3.34 16.34 -3 16 C-2.62607155 13.49935351 -2.29475984 11.01006422 -2 8.5 C-1.13513514 1.13513514 -1.13513514 1.13513514 0 0 Z " fill="#F8EED8" transform="translate(27,18)"/>
<path d="M0 0 C2.80563987 2.80563987 2.41631396 5.60981812 2.5625 9.375 C2.72279628 14.32013472 2.72279628 14.32013472 3.5546875 19.1796875 C4.12339178 21.50439094 3.87540491 23.38582959 3.5625 25.75 C3.46066406 26.54921875 3.35882813 27.3484375 3.25390625 28.171875 C3.17011719 28.77515625 3.08632812 29.3784375 3 30 C3.66 30 4.32 30 5 30 C4.34 34.62 3.68 39.24 3 44 C2.67 44 2.34 44 2 44 C1.67 48.62 1.34 53.24 1 58 C0.34 58 -0.32 58 -1 58 C-1 48.66666667 -1 39.33333333 -1 30 C-1.01160156 29.12988281 -1.02320312 28.25976562 -1.03515625 27.36328125 C-1.11722639 18.20659865 -0.61235544 9.13065702 0 0 Z " fill="#FAEFD7" transform="translate(114,17)"/>
<path d="M0 0 C0.33 0 0.66 0 1 0 C1.12117188 0.67546875 1.24234375 1.3509375 1.3671875 2.046875 C1.53476563 2.93890625 1.70234375 3.8309375 1.875 4.75 C2.03742188 5.63171875 2.19984375 6.5134375 2.3671875 7.421875 C2.96796264 9.86947744 3.77997117 11.80599857 5 14 C5.66 14 6.32 14 7 14 C9.02678046 17.34617479 9.19184538 19.81231246 9.0625 23.6875 C9.00857537 25.4576347 8.97951097 27.22916265 9 29 C9.33 29.33 9.66 29.66 10 30 C10.04063832 31.66617115 10.042721 33.33388095 10 35 C9.34 34.67 8.68 34.34 8 34 C8 33.34 8 32.68 8 32 C7.01 31.67 6.02 31.34 5 31 C4.67 29.35 4.34 27.7 4 26 C2.68 25.67 1.36 25.34 0 25 C0.01160156 23.85660156 0.02320312 22.71320312 0.03515625 21.53515625 C0.04453288 20.04427246 0.05363321 18.55338691 0.0625 17.0625 C0.07087891 16.30775391 0.07925781 15.55300781 0.08789062 14.77539062 C0.09652441 12.85005687 0.05224333 10.92464419 0 9 C-0.33 8.67 -0.66 8.34 -1 8 C-1.125 4.5 -1.125 4.5 -1 1 C-0.67 0.67 -0.34 0.34 0 0 Z " fill="#F9F4EA" transform="translate(102,36)"/>
<path d="M0 0 C2.06192608 3.09288912 2.30240856 4.1861939 2.5625 7.75 C2.81477782 10.88283189 3.11766088 13.96066715 3.625 17.0625 C3.74875 18.031875 3.8725 19.00125 4 20 C3.67 20.33 3.34 20.66 3 21 C2.91286169 22.70772358 2.89299993 24.41898649 2.90234375 26.12890625 C2.90556641 27.16337891 2.90878906 28.19785156 2.91210938 29.26367188 C2.92048828 30.35228516 2.92886719 31.44089844 2.9375 32.5625 C2.94201172 33.65498047 2.94652344 34.74746094 2.95117188 35.87304688 C2.96300174 38.58208495 2.97948457 41.29101599 3 44 C2.34 43.34 1.68 42.68 1 42 C0.67 45.3 0.34 48.6 0 52 C-0.66 52 -1.32 52 -2 52 C-1.99476318 51.09644775 -1.98952637 50.19289551 -1.98413086 49.26196289 C-1.96712314 45.92048511 -1.95456667 42.57905308 -1.94506836 39.23754883 C-1.94002899 37.78929927 -1.93319747 36.34105483 -1.92456055 34.89282227 C-1.91247753 32.81525412 -1.90676789 30.73775303 -1.90234375 28.66015625 C-1.89710693 27.40855713 -1.89187012 26.15695801 -1.88647461 24.86743164 C-1.67112965 22.10267706 -1.67112965 22.10267706 -3 21 C-3.04063832 19.33382885 -3.042721 17.66611905 -3 16 C-2.01 15.67 -1.02 15.34 0 15 C0 10.05 0 5.1 0 0 Z " fill="#FBF1DB" transform="translate(257,15)"/>
<path d="M0 0 C0.33 0 0.66 0 1 0 C1.13277344 1.28777344 1.26554687 2.57554688 1.40234375 3.90234375 C1.58049899 5.58075362 1.75889692 7.25913773 1.9375 8.9375 C2.02451172 9.78763672 2.11152344 10.63777344 2.20117188 11.51367188 C2.28818359 12.32255859 2.37519531 13.13144531 2.46484375 13.96484375 C2.543396 14.7137085 2.62194824 15.46257324 2.70288086 16.23413086 C2.8280738 18.02140013 2.8280738 18.02140013 4 19 C4.14319094 21.57743685 4.0370139 23.82631383 3.49829102 26.35424805 C2.9993586 29.00340559 2.88582877 31.39008876 2.90234375 34.08203125 C2.90556641 35.01337891 2.90878906 35.94472656 2.91210938 36.90429688 C2.92048828 37.86400391 2.92886719 38.82371094 2.9375 39.8125 C2.94201172 40.79154297 2.94652344 41.77058594 2.95117188 42.77929688 C2.96291316 45.18626111 2.97933581 47.59309857 3 50 C2.67 50 2.34 50 2 50 C2 46.04 2 42.08 2 38 C1.34 38 0.68 38 0 38 C-0.33 38.66 -0.66 39.32 -1 40 C-1.09087891 38.35451172 -1.09087891 38.35451172 -1.18359375 36.67578125 C-1.26804498 35.22134346 -1.35269066 33.76691695 -1.4375 32.3125 C-1.47681641 31.59126953 -1.51613281 30.87003906 -1.55664062 30.12695312 C-1.73577411 27.10924287 -1.94047023 24.27123498 -2.58984375 21.3125 C-3.08577666 18.516383 -2.71053842 16.45878115 -2.125 13.6875 C-1.21050951 9.12740551 -0.52305877 4.62035251 0 0 Z " fill="#EDDEBE" transform="translate(325,12)"/>
<path d="M0 0 C0.99 0.33 1.98 0.66 3 1 C3 5.62 3 10.24 3 15 C2.67 15 2.34 15 2 15 C1.46742809 17.56055758 0.94868156 20.12266329 0.4375 22.6875 C0.28603516 23.40873047 0.13457031 24.12996094 -0.02148438 24.87304688 C-0.16005859 25.57880859 -0.29863281 26.28457031 -0.44140625 27.01171875 C-0.57232666 27.65584717 -0.70324707 28.29997559 -0.83813477 28.96362305 C-1.03721143 31.46814556 -0.50214154 33.54005029 0 36 C0.0793925 38.13028006 0.10775926 40.26279622 0.09765625 42.39453125 C0.09443359 43.59658203 0.09121094 44.79863281 0.08789062 46.03710938 C0.07951172 47.28298828 0.07113281 48.52886719 0.0625 49.8125 C0.05798828 51.07771484 0.05347656 52.34292969 0.04882812 53.64648438 C0.03706251 56.7643711 0.02062272 59.88216133 0 63 C-2.96337891 60.25537109 -2.96337891 60.25537109 -3.29296875 57.95703125 C-3.1953125 55.97135417 -3.09765625 53.98567708 -3 52 C-2.34 52 -1.68 52 -1 52 C-1.11402064 49.72858891 -1.24158505 47.45785448 -1.375 45.1875 C-1.44460938 43.92292969 -1.51421875 42.65835938 -1.5859375 41.35546875 C-1.76102939 37.87244766 -1.76102939 37.87244766 -4 35 C-3.67211914 31.73803711 -3.67211914 31.73803711 -3 28 C-2.73783607 25.73169779 -2.48676524 23.46208942 -2.24609375 21.19140625 C-2.11396484 19.95068359 -1.98183594 18.70996094 -1.84570312 17.43164062 C-1.71099609 16.15482422 -1.57628906 14.87800781 -1.4375 13.5625 C-1.29892578 12.25861328 -1.16035156 10.95472656 -1.01757812 9.61132812 C-0.67726273 6.40766943 -0.33810561 3.20389254 0 0 Z " fill="#C2A56E" transform="translate(324,0)"/>
<path d="M0 0 C0.33 0 0.66 0 1 0 C1.02709444 2.08326131 1.04643873 4.16662441 1.0625 6.25 C1.07410156 7.41015625 1.08570313 8.5703125 1.09765625 9.765625 C1 13 1 13 0.43359375 15.109375 C-0.14464429 17.63070125 0.44299808 19.48780767 1 22 C1.37484122 27.98874234 1.42093486 33.40158814 -1 39 C-2.98567708 38.70703125 -4.97135417 38.4140625 -6.95703125 38.12109375 C-9.2025342 37.86095201 -9.2025342 37.86095201 -12 39 C-11.3125 37.0625 -11.3125 37.0625 -10 35 C-7.5625 34.125 -7.5625 34.125 -5 34 C-4.01 34.66 -3.02 35.32 -2 36 C-2.05329468 35.04130005 -2.05329468 35.04130005 -2.10766602 34.06323242 C-2.26743177 31.10503221 -2.41501336 28.14633686 -2.5625 25.1875 C-2.61857422 24.18267578 -2.67464844 23.17785156 -2.73242188 22.14257812 C-3.05552573 15.44355827 -3.30702692 8.61389801 -2 2 C-1.34 1.34 -0.68 0.68 0 0 Z " fill="#CAAE79" transform="translate(163,44)"/>
<path d="M0 0 C0.33 0 0.66 0 1 0 C1 13.53 1 27.06 1 41 C0.01 41 -0.98 41 -2 41 C-3.24179498 34.19015656 -3.22026102 27.40687856 -3.25 20.5 C-3.270625 19.30246094 -3.29125 18.10492188 -3.3125 16.87109375 C-3.34085677 10.46955181 -3.14917621 5.63536796 0 0 Z " fill="#CAAD77" transform="translate(228,36)"/>
<path d="M0 0 C0.66 0 1.32 0 2 0 C2.06058594 0.75925781 2.12117188 1.51851563 2.18359375 2.30078125 C2.26738281 3.29464844 2.35117187 4.28851563 2.4375 5.3125 C2.55931641 6.79169922 2.55931641 6.79169922 2.68359375 8.30078125 C2.91812559 11.09375599 2.91812559 11.09375599 4 14 C4.20365771 16.22609194 4.3649157 18.45619679 4.5 20.6875 C4.76103519 24.75459664 5.05271484 28.77715589 5.625 32.8125 C5.74875 33.864375 5.8725 34.91625 6 36 C5.505 36.495 5.505 36.495 5 37 C4.92794489 38.68608966 4.91613932 40.37500659 4.9375 42.0625 C4.95103516 43.44115234 4.95103516 43.44115234 4.96484375 44.84765625 C4.97644531 45.55792969 4.98804688 46.26820312 5 47 C5.99 47 6.98 47 8 47 C8 46.34 8 45.68 8 45 C8.66 45 9.32 45 10 45 C10 44.34 10 43.68 10 43 C10.66 43.33 11.32 43.66 12 44 C10.875 46.4375 10.875 46.4375 9 49 C5.875 49.6875 5.875 49.6875 3 50 C2.67 50.66 2.34 51.32 2 52 C1.97314905 49.52076199 1.95323453 47.0418116 1.9375 44.5625 C1.92493164 43.50192383 1.92493164 43.50192383 1.91210938 42.41992188 C1.90346412 40.61306441 1.94779989 38.80612397 2 37 C2.495 36.505 2.495 36.505 3 36 C3.30523962 31.34911285 3.30523962 31.34911285 2 27 C1.77712919 24.97053881 1.60760065 22.93510257 1.46484375 20.8984375 C1.37783203 19.68671875 1.29082031 18.475 1.20117188 17.2265625 C1.11416016 15.95554687 1.02714844 14.68453125 0.9375 13.375 C0.84662109 12.09625 0.75574219 10.8175 0.66210938 9.5 C0.43762438 6.33358006 0.21709077 3.16693409 0 0 Z " fill="#FAEFD7" transform="translate(259,0)"/>
<path d="M0 0 C0.33 0 0.66 0 1 0 C1.87999163 14.34700641 2.12713885 28.62744208 2 43 C1.34 43 0.68 43 0 43 C0 42.01 0 41.02 0 40 C-0.66 40 -1.32 40 -2 40 C-1.98259766 38.515 -1.98259766 38.515 -1.96484375 37 C-1.84087422 28.54172312 -1.84087422 28.54172312 -2.5625 20.125 C-2.706875 19.09375 -2.85125 18.0625 -3 17 C-2.67 16.67 -2.34 16.34 -2 16 C-1.78936893 13.49583065 -1.62427923 11.00859919 -1.5 8.5 C-1.13513514 1.13513514 -1.13513514 1.13513514 0 0 Z " fill="#FAEFD6" transform="translate(165,41)"/>
<path d="M0 0 C0.33 0 0.66 0 1 0 C1.05534912 0.69150146 1.11069824 1.38300293 1.16772461 2.09545898 C1.41963531 5.20987214 1.67847351 8.32367095 1.9375 11.4375 C2.02451172 12.52611328 2.11152344 13.61472656 2.20117188 14.73632812 C2.28818359 15.77080078 2.37519531 16.80527344 2.46484375 17.87109375 C2.58267212 19.30859985 2.58267212 19.30859985 2.70288086 20.77514648 C2.76667071 22.96909889 2.76667071 22.96909889 4 24 C4.01683857 26.29326219 3.96241325 28.58710312 3.87890625 30.87890625 C3.85529526 31.5655687 3.83168427 32.25223114 3.80735779 32.95970154 C3.7305582 35.16083628 3.64660497 37.36163344 3.5625 39.5625 C3.50929557 41.05141557 3.45655507 42.54034779 3.40429688 44.02929688 C3.27492148 47.68640673 3.13912762 51.34324672 3 55 C2.67 55 2.34 55 2 55 C1.93941406 53.68644531 1.87882812 52.37289062 1.81640625 51.01953125 C1.73196744 49.28384459 1.64732112 47.54816802 1.5625 45.8125 C1.52318359 44.94818359 1.48386719 44.08386719 1.44335938 43.19335938 C1.23525647 39.01529337 0.84697122 35.10328774 0 31 C0.33 30.67 0.66 30.34 1 30 C1.16666667 27.5 1.16666667 27.5 1 25 C0.67 24.67 0.34 24.34 0 24 C-1.06621261 18.57008282 -0.97238889 13.5606647 -0.5625 8.0625 C-0.51029297 7.28326172 -0.45808594 6.50402344 -0.40429688 5.70117188 C-0.27601936 3.80033228 -0.13892679 1.90009096 0 0 Z " fill="#C6AA74" transform="translate(327,6)"/>
<path d="M0 0 C0.99 0.33 1.98 0.66 3 1 C3.36359522 4.79082504 3.71427657 8.58273449 4.0625 12.375 C4.16626953 13.45523438 4.27003906 14.53546875 4.37695312 15.6484375 C4.47041016 16.6796875 4.56386719 17.7109375 4.66015625 18.7734375 C4.74918213 19.72653809 4.83820801 20.67963867 4.92993164 21.66162109 C5 24 5 24 4 26 C3.91657841 27.44848582 3.89267139 28.90070869 3.90234375 30.3515625 C3.90556641 31.20234375 3.90878906 32.053125 3.91210938 32.9296875 C3.92048828 33.81914063 3.92886719 34.70859375 3.9375 35.625 C3.94201172 36.5221875 3.94652344 37.419375 3.95117188 38.34375 C3.96297409 40.56256648 3.97943845 42.78125018 4 45 C2.515 45.495 2.515 45.495 1 46 C0.97090237 42.75001888 0.95316839 39.50007143 0.9375 36.25 C0.92912109 35.32960937 0.92074219 34.40921875 0.91210938 33.4609375 C0.90888672 32.57148437 0.90566406 31.68203125 0.90234375 30.765625 C0.89448853 29.54020996 0.89448853 29.54020996 0.88647461 28.29003906 C1 26 1 26 1.52734375 24.02734375 C2.11948719 21.48748882 1.91643669 19.38982999 1.66015625 16.796875 C1.56669922 15.8171875 1.47324219 14.8375 1.37695312 13.828125 C1.27318359 12.81234375 1.16941406 11.7965625 1.0625 10.75 C0.96259766 9.71875 0.86269531 8.6875 0.75976562 7.625 C0.5125948 5.08267151 0.25912455 2.5411333 0 0 Z " fill="#C5A76C" transform="translate(147,38)"/>
<path d="M0 0 C0.33 0 0.66 0 1 0 C1.06058594 1.00160156 1.12117188 2.00320313 1.18359375 3.03515625 C1.26808405 4.37761331 1.35272768 5.72006072 1.4375 7.0625 C1.55931641 9.02896484 1.55931641 9.02896484 1.68359375 11.03515625 C1.95078469 14.9956114 1.95078469 14.9956114 2.59765625 18.87109375 C3 22 3 22 2 24 C1.8718291 27.39652896 1.87007427 30.42832679 2.625 33.75 C3 36 3 36 1 39 C0.67 37.35 0.34 35.7 0 34 C-0.66 35.32 -1.32 36.64 -2 38 C-2.2785731 25.1856375 -1.48801657 12.72785603 0 0 Z " fill="#F6E8C7" transform="translate(43,13)"/>
<path d="M0 0 C0.66 0 1.32 0 2 0 C1.59669841 4.11231035 1.18765044 8.22400361 0.77319336 12.33520508 C0.63292648 13.73478573 0.49424998 15.13452669 0.35717773 16.53442383 C0.1602412 18.54289212 -0.04283114 20.55075582 -0.24609375 22.55859375 C-0.36654053 23.76829834 -0.4869873 24.97800293 -0.61108398 26.22436523 C-1 29 -1 29 -2 30 C-2.16666667 33 -2.16666667 33 -2 36 C-1.67 36.33 -1.34 36.66 -1 37 C-0.91251793 38.92667507 -0.89302666 40.85651861 -0.90234375 42.78515625 C-0.90556641 43.95498047 -0.90878906 45.12480469 -0.91210938 46.33007812 C-0.92048828 47.56177734 -0.92886719 48.79347656 -0.9375 50.0625 C-0.94201172 51.29806641 -0.94652344 52.53363281 -0.95117188 53.80664062 C-0.96300392 56.87114117 -0.97948827 59.93554721 -1 63 C-1.33 63 -1.66 63 -2 63 C-2 54.75 -2 46.5 -2 38 C-2.66 38 -3.32 38 -4 38 C-4.02689216 36.52093108 -4.04634621 35.04172517 -4.0625 33.5625 C-4.07990234 32.32693359 -4.07990234 32.32693359 -4.09765625 31.06640625 C-4 29 -4 29 -3 28 C-2.76031076 24.16497219 -2.6052347 20.3362411 -2.48242188 16.49609375 C-2.2451098 10.77373846 -1.3845165 5.56048731 0 0 Z " fill="#F4E7CE" transform="translate(255,0)"/>
<path d="M0 0 C0.5625 1.9375 0.5625 1.9375 1 4 C0.67 4.33 0.34 4.66 0 5 C-0.16666667 8.5 -0.16666667 8.5 0 12 C0.33 12.33 0.66 12.66 1 13 C0.90903444 15.86688248 0.76232012 18.70300515 0.5625 21.5625 C0.51029297 22.36880859 0.45808594 23.17511719 0.40429688 24.00585938 C0.27422624 26.00421738 0.13770944 28.00215386 0 30 C-0.99 29.67 -1.98 29.34 -3 29 C-3.0947509 24.16770434 -3.0374043 19.74241966 -2 15 C-2.33 14.67 -2.66 14.34 -3 14 C-3.12494616 12.37860563 -3.17571624 10.75115878 -3.1875 9.125 C-3.20167969 8.24070312 -3.21585937 7.35640625 -3.23046875 6.4453125 C-2.96428621 3.62107068 -2.02896327 2.02896327 0 0 Z " fill="#C4AA75" transform="translate(102,32)"/>
<path d="M0 0 C0.66 0 1.32 0 2 0 C3.125 5.625 3.125 5.625 2 9 C0.62334325 13.57210818 0.63180294 18.26343858 0.37890625 23.00390625 C0 26 0 26 -2 29 C-2.66 29 -3.32 29 -4 29 C-2.99337378 19.26571024 -1.98650799 9.59441093 0 0 Z " fill="#CBAF78" transform="translate(146,33)"/>
<path d="M0 0 C0.33 0 0.66 0 1 0 C1.33505419 3.94999263 1.65617986 7.90084422 1.96435547 11.85302734 C2.07119202 13.19773903 2.18185132 14.54215264 2.29638672 15.88623047 C2.4602153 17.81655859 2.60923084 19.74812597 2.7578125 21.6796875 C2.89920654 23.42354736 2.89920654 23.42354736 3.04345703 25.20263672 C3 28 3 28 1 30 C1 24.06 1 18.12 1 12 C0.34 12 -0.32 12 -1 12 C-0.97679687 13.26457031 -0.95359375 14.52914063 -0.9296875 15.83203125 C-0.91092874 17.4921816 -0.89272865 19.15233833 -0.875 20.8125 C-0.85824219 21.64587891 -0.84148437 22.47925781 -0.82421875 23.33789062 C-0.81777344 24.14033203 -0.81132812 24.94277344 -0.8046875 25.76953125 C-0.79421387 26.50792236 -0.78374023 27.24631348 -0.77294922 28.00708008 C-1 30 -1 30 -3 33 C-3.12455223 26.12010369 -2.78821698 19.40276852 -2.0625 12.5625 C-1.97548828 11.67884766 -1.88847656 10.79519531 -1.79882812 9.88476562 C-1.44098202 6.3990795 -1.1126093 3.3378279 0 0 Z " fill="#F9ECCE" transform="translate(224,13)"/>
<path d="M0 0 C0.33 0 0.66 0 1 0 C1 6.6 1 13.2 1 20 C2.32 19.67 3.64 19.34 5 19 C6.20442708 20.49739583 7.40885417 21.99479167 8.61328125 23.4921875 C10.12270545 25.25292107 10.12270545 25.25292107 13 27 C10.6875 27.25 10.6875 27.25 8 27 C6.98594743 25.67732273 5.98731742 24.34275169 5 23 C3.02005696 22.27593508 1.01994729 21.60353741 -1 21 C-1.02888146 17.68751813 -1.04675799 14.37506833 -1.0625 11.0625 C-1.07087891 10.11697266 -1.07925781 9.17144531 -1.08789062 8.19726562 C-1.09111328 7.29814453 -1.09433594 6.39902344 -1.09765625 5.47265625 C-1.10289307 4.64000244 -1.10812988 3.80734863 -1.11352539 2.94946289 C-1 1 -1 1 0 0 Z " fill="#C29F5E" transform="translate(167,62)"/>
<path d="M0 0 C0.66 0 1.32 0 2 0 C2 5.28 2 10.56 2 16 C-2 14.66666667 -6 13.33333333 -10 12 C-14.24674388 11.76835942 -17.35602463 11.66785576 -21 14 C-21 12.68 -21 11.36 -21 10 C-18.79194476 9.9455548 -16.58349446 9.90700717 -14.375 9.875 C-13.14523438 9.85179688 -11.91546875 9.82859375 -10.6484375 9.8046875 C-7.05683959 9.9969572 -4.33338825 10.69741444 -1 12 C-0.67 8.04 -0.34 4.08 0 0 Z " fill="#FCF2DC" transform="translate(217,63)"/>
<path d="M0 0 C0.33 0 0.66 0 1 0 C1.33675279 2.89547264 1.66951734 5.79131072 2 8.6875 C2.09539062 9.50412109 2.19078125 10.32074219 2.2890625 11.16210938 C2.73870522 15.12860052 3.13034543 19.00002463 3 23 C1.35 23.33 -0.3 23.66 -2 24 C-2.96782198 20.2173155 -2.92960426 17.49559275 -2.125 13.6875 C-1.21050951 9.12740551 -0.52305877 4.62035251 0 0 Z " fill="#F9F2E6" transform="translate(325,12)"/>
<path d="M0 0 C0.33 0 0.66 0 1 0 C1.20005983 3.45772343 1.38267635 6.91616982 1.5625 10.375 C1.61857422 11.34050781 1.67464844 12.30601563 1.73242188 13.30078125 C2.05163996 19.6425806 1.82870943 25.70388225 1 32 C0.34 32 -0.32 32 -1 32 C-1.33 32.99 -1.66 33.98 -2 35 C-1.87431641 33.77023438 -1.87431641 33.77023438 -1.74609375 32.515625 C-1.64425781 31.43796875 -1.54242188 30.3603125 -1.4375 29.25 C-1.33308594 28.18265625 -1.22867188 27.1153125 -1.12109375 26.015625 C-0.86137055 23.154263 -0.86137055 23.154263 -1.49780273 21.06396484 C-2.02582086 18.89387964 -2.04760606 17.18367241 -1.9140625 14.9609375 C-1.87023437 14.21585938 -1.82640625 13.47078125 -1.78125 12.703125 C-1.7296875 11.93484375 -1.678125 11.1665625 -1.625 10.375 C-1.58117187 9.59898438 -1.53734375 8.82296875 -1.4921875 8.0234375 C-1.13225446 2.26450893 -1.13225446 2.26450893 0 0 Z " fill="#FCEDC6" transform="translate(98,14)"/>
<path d="M0 0 C0.33 0 0.66 0 1 0 C1.38991633 2.91537441 1.76239 5.83121335 2.125 8.75 C2.23714844 9.575 2.34929687 10.4 2.46484375 11.25 C2.56152344 12.04921875 2.65820312 12.8484375 2.7578125 13.671875 C2.8520752 14.4050293 2.94633789 15.13818359 3.04345703 15.89355469 C2.99041812 18.46445189 2.42868967 19.87117699 1 22 C0.01 22.33 -0.98 22.66 -2 23 C-1.86068862 19.9163358 -1.71240719 16.83316583 -1.5625 13.75 C-1.52318359 12.87730469 -1.48386719 12.00460938 -1.44335938 11.10546875 C-1.40146484 10.26113281 -1.35957031 9.41679688 -1.31640625 8.546875 C-1.27974854 7.77182617 -1.24309082 6.99677734 -1.20532227 6.19824219 C-1.00396985 4.0425024 -0.58270703 2.08198525 0 0 Z " fill="#FCF1D8" transform="translate(147,42)"/>
<path d="M0 0 C0.33 0 0.66 0 1 0 C0.9278125 1.30710938 0.855625 2.61421875 0.78125 3.9609375 C0.16407684 15.65422369 -0.1286662 27.29137624 0 39 C-0.99 38.67 -1.98 38.34 -3 38 C-2.21889502 10.83596307 -2.21889502 10.83596307 0 0 Z " fill="#FCF2DE" transform="translate(161,41)"/>
<path d="M0 0 C0.33 0 0.66 0 1 0 C0.86068862 3.0836642 0.71240719 6.16683417 0.5625 9.25 C0.52318359 10.12269531 0.48386719 10.99539062 0.44335938 11.89453125 C0.40146484 12.73886719 0.35957031 13.58320313 0.31640625 14.453125 C0.27974854 15.22817383 0.24309082 16.00322266 0.20532227 16.80175781 C0 19 0 19 -0.58227539 21.09667969 C-1.21568391 23.20668989 -1.21568391 23.20668989 0 26 C0.13973952 29.84283684 0.17851619 33.3171369 -1 37 C-2.9375 36.1875 -2.9375 36.1875 -5 35 C-5.495 33.515 -5.495 33.515 -6 32 C-4.68 32 -3.36 32 -2 32 C-2.08378906 31.08476563 -2.16757813 30.16953125 -2.25390625 29.2265625 C-2.35574219 28.03804687 -2.45757812 26.84953125 -2.5625 25.625 C-2.66691406 24.44164063 -2.77132812 23.25828125 -2.87890625 22.0390625 C-3 19 -3 19 -2 17 C-1.79413422 14.87843877 -1.63385378 12.75231896 -1.5 10.625 C-1.26856896 6.96343029 -1.04234665 3.52660615 0 0 Z " fill="#F8ECD2" transform="translate(95,11)"/>
<path d="M0 0 C0.66 0 1.32 0 2 0 C2.69617667 4.91607831 3.24772665 9.13386606 2 14 C1.84570007 15.41576952 1.70048214 16.8325471 1.5625 18.25 C1.376875 19.4875 1.19125 20.725 1 22 C0.34 22.33 -0.32 22.66 -1 23 C-1.19393875 20.85473901 -1.37998676 18.70876323 -1.5625 16.5625 C-1.71912109 14.77005859 -1.71912109 14.77005859 -1.87890625 12.94140625 C-1.91886719 11.97074219 -1.95882813 11.00007813 -2 10 C-1.67 9.67 -1.34 9.34 -1 9 C-0.76807135 7.48530552 -0.58784762 5.96245438 -0.4375 4.4375 C-0.35371094 3.61121094 -0.26992188 2.78492188 -0.18359375 1.93359375 C-0.12300781 1.29550781 -0.06242187 0.65742187 0 0 Z " fill="#CBAF7A" transform="translate(22,51)"/>
<path d="M0 0 C2.5233139 3.78497085 2.77732617 7.06541613 3.4375 11.50390625 C3.80208875 14.15832774 3.80208875 14.15832774 6 16 C6.54558503 21.65928876 6.20082474 27.4461856 5 33 C3 31 3 31 2.875 27.62890625 C2.92315687 25.58424587 3.00078377 23.54178896 3.078125 21.49804688 C3.16670517 17.72969863 3.15256886 16.22885329 1 13 C0.62109375 11.02734375 0.62109375 11.02734375 0.4375 8.9375 C0.25413459 5.22018139 0.25413459 5.22018139 -1 3 C-0.67 2.01 -0.34 1.02 0 0 Z " fill="#F6EAD2" transform="translate(402,57)"/>
<path d="M0 0 C0.33 0 0.66 0 1 0 C2.83747095 11.48051853 2.36935753 22.63977683 0 34 C-0.33 34 -0.66 34 -1 34 C-1.33 29.71 -1.66 25.42 -2 21 C-1.34 21 -0.68 21 0 21 C0 14.07 0 7.14 0 0 Z " fill="#CCAF77" transform="translate(112,12)"/>
<path d="M0 0 C2 2 2 2 2.125 5.125 C2.08375 6.07375 2.0425 7.0225 2 8 C1.67 8 1.34 8 1 8 C0.67 11.96 0.34 15.92 0 20 C-1.32 19.67 -2.64 19.34 -4 19 C-3.71954112 16.01937854 -3.42622495 13.04103028 -3.125 10.0625 C-3.04636719 9.21236328 -2.96773437 8.36222656 -2.88671875 7.48632812 C-2.80292969 6.67744141 -2.71914062 5.86855469 -2.6328125 5.03515625 C-2.55949707 4.2862915 -2.48618164 3.53742676 -2.41064453 2.76586914 C-2.20737549 1.89176392 -2.20737549 1.89176392 -2 1 C-1.34 0.67 -0.68 0.34 0 0 Z " fill="#CDB17B" transform="translate(257,10)"/>
<path d="M0 0 C0.99 0.33 1.98 0.66 3 1 C4.70994772 8.7558343 5.24923458 16.06603268 5 24 C4.67 24 4.34 24 4 24 C3.34 19.38 2.68 14.76 2 10 C1.34 10 0.68 10 0 10 C0 6.7 0 3.4 0 0 Z " fill="#C3A262" transform="translate(113,9)"/>
<path d="M0 0 C0.33 0 0.66 0 1 0 C2.95403042 7.72888819 3.22428282 15.05042008 3 23 C2.01 23.33 1.02 23.66 0 24 C-0.19682269 20.56296699 -0.38085152 17.12536573 -0.5625 13.6875 C-0.61857422 12.71103516 -0.67464844 11.73457031 -0.73242188 10.72851562 C-0.78076172 9.79072266 -0.82910156 8.85292969 -0.87890625 7.88671875 C-0.9260376 7.02264404 -0.97316895 6.15856934 -1.02172852 5.26831055 C-1 3 -1 3 0 0 Z " fill="#D1B786" transform="translate(361,12)"/>
<path d="M0 0 C0.99 0.33 1.98 0.66 3 1 C3 5.95 3 10.9 3 16 C2.34 14.68 1.68 13.36 1 12 C0.01 12.495 0.01 12.495 -1 13 C-1.02696365 11.20841511 -1.04637917 9.41671527 -1.0625 7.625 C-1.07410156 6.62726562 -1.08570313 5.62953125 -1.09765625 4.6015625 C-1 2 -1 2 0 0 Z " fill="#C8A664" transform="translate(257,0)"/>
<path d="M0 0 C0.66 0 1.32 0 2 0 C2.02712153 1.916588 2.04645097 3.8332873 2.0625 5.75 C2.07410156 6.81734375 2.08570313 7.8846875 2.09765625 8.984375 C2.01510087 11.53368501 1.74617558 13.57933591 1 16 C0.01 16 -0.98 16 -2 16 C-1.85975781 13.52039864 -1.7130815 11.04147598 -1.5625 8.5625 C-1.52318359 7.85544922 -1.48386719 7.14839844 -1.44335938 6.41992188 C-1.11328125 1.11328125 -1.11328125 1.11328125 0 0 Z " fill="#CBAF7A" transform="translate(356,61)"/>
<path d="M0 0 C0.99 0.33 1.98 0.66 3 1 C4.05086948 3.76366247 4.11860688 6.39503741 4.09765625 9.328125 C4.09443359 10.12734375 4.09121094 10.9265625 4.08789062 11.75 C4.07951172 12.575 4.07113281 13.4 4.0625 14.25 C4.05798828 15.09046875 4.05347656 15.9309375 4.04882812 16.796875 C4.03707961 18.86461401 4.01914522 20.93231624 4 23 C3.67 23 3.34 23 3 23 C2.86722656 21.78441406 2.73445313 20.56882812 2.59765625 19.31640625 C2.41949909 17.73174516 2.24110125 16.1471111 2.0625 14.5625 C1.93198242 13.35883789 1.93198242 13.35883789 1.79882812 12.13085938 C1.69451606 8.24423336 1.69451606 8.24423336 0 5 C-0.04063832 3.33382885 -0.042721 1.66611905 0 0 Z " fill="#C4A363" transform="translate(26,9)"/>
<path d="M0 0 C0.33 0 0.66 0 1 0 C1 8.58 1 17.16 1 26 C-2 23 -2 23 -2.29296875 20.95703125 C-2.1953125 18.97135417 -2.09765625 16.98567708 -2 15 C-1.34 15 -0.68 15 0 15 C0 10.05 0 5.1 0 0 Z " fill="#C4A05C" transform="translate(323,37)"/>
<path d="M0 0 C0.66 0.33 1.32 0.66 2 1 C2 4.3 2 7.6 2 11 C-1.70152678 11.92538169 -2.63458162 12.08174162 -6 11 C-6 10.34 -6 9.68 -6 9 C-5.38125 8.814375 -4.7625 8.62875 -4.125 8.4375 C-0.94397134 6.28562767 -0.80548053 3.62466237 0 0 Z " fill="#FAF3E2" transform="translate(392,70)"/>
<path d="M0 0 C1.32 0.33 2.64 0.66 4 1 C4 4.63 4 8.26 4 12 C2.68 12.33 1.36 12.66 0 13 C0 8.71 0 4.42 0 0 Z " fill="#F9F3E7" transform="translate(115,60)"/>
<path d="M0 0 C1.32 0.33 2.64 0.66 4 1 C3.835 1.61875 3.67 2.2375 3.5 2.875 C2.79924683 7.25470729 2.92265749 11.57428989 3 16 C2.34 16 1.68 16 1 16 C0.67 13.03 0.34 10.06 0 7 C-0.99 7 -1.98 7 -3 7 C-2.67 6.34 -2.34 5.68 -2 5 C-1.34 5.33 -0.68 5.66 0 6 C0 4.02 0 2.04 0 0 Z " fill="#FCF4E5" transform="translate(97,46)"/>
<path d="M0 0 C0.66 0 1.32 0 2 0 C2.91657981 5.38490641 3.11138159 10.54230189 3 16 C2.34 16 1.68 16 1 16 C-0.4516516 10.82849117 -1.33228375 6.42730132 -1 1 C-0.67 0.67 -0.34 0.34 0 0 Z " fill="#C6A35E" transform="translate(43,3)"/>
<path d="M0 0 C0.99 0 1.98 0 3 0 C3.33 1.98 3.66 3.96 4 6 C4.66 5.67 5.32 5.34 6 5 C5.625 7.4375 5.625 7.4375 5 10 C4.01 10.495 4.01 10.495 3 11 C2.01 10.34 1.02 9.68 0 9 C-0.29296875 6.8359375 -0.29296875 6.8359375 -0.1875 4.375 C-0.16042969 3.55773437 -0.13335937 2.74046875 -0.10546875 1.8984375 C-0.05326172 0.95871094 -0.05326172 0.95871094 0 0 Z " fill="#CEB27D" transform="translate(362,71)"/>
<path d="M0 0 C0.66 0 1.32 0 2 0 C2 2.64 2 5.28 2 8 C-1.19315081 9.89223752 -3.34663064 10 -7 10 C-7.99 10.66 -8.98 11.32 -10 12 C-9.67 10.68 -9.34 9.36 -9 8 C-5.846632 7.29925156 -3.27275026 7 0 7 C0 4.69 0 2.38 0 0 Z " fill="#C0A266" transform="translate(394,74)"/>
<path d="M0 0 C0.66 0 1.32 0 2 0 C1.7229061 3.45966438 1.42586237 6.91732798 1.125 10.375 C1.04636719 11.35984375 0.96773437 12.3446875 0.88671875 13.359375 C0.76103516 14.77089844 0.76103516 14.77089844 0.6328125 16.2109375 C0.55949707 17.08024902 0.48618164 17.94956055 0.41064453 18.84521484 C0 21 0 21 -2 23 C-2.20483028 15.00023956 -2.13480153 7.73865554 0 0 Z " fill="#FAEFDB" transform="translate(255,0)"/>
<path d="M0 0 C0.99 0.33 1.98 0.66 3 1 C3 5.62 3 10.24 3 15 C2.67 14.01 2.34 13.02 2 12 C1.01 11.67 0.02 11.34 -1 11 C-0.67 7.37 -0.34 3.74 0 0 Z " fill="#C8A561" transform="translate(324,0)"/>
<path d="M0 0 C0.33 0 0.66 0 1 0 C1.09776087 10.38437692 1.1555538 20.66192051 0 31 C-1.32 30.01 -2.64 29.02 -4 28 C-3.34 27.67 -2.68 27.34 -2 27 C-1.52861048 24.28160006 -1.52861048 24.28160006 -1.3671875 20.99609375 C-1.28339844 19.78115234 -1.19960938 18.56621094 -1.11328125 17.31445312 C-1.03464844 16.03505859 -0.95601563 14.75566406 -0.875 13.4375 C-0.78863281 12.15423828 -0.70226562 10.87097656 -0.61328125 9.54882812 C-0.40032722 6.36634838 -0.19630849 3.18354291 0 0 Z " fill="#FAEED6" transform="translate(355,43)"/>
<path d="M0 0 C3.46683791 3.46683791 3.16132819 6.87774527 3.1875 11.5625 C3.20167969 12.71878906 3.21585938 13.87507813 3.23046875 15.06640625 C3 18 3 18 1 20 C0.67 13.4 0.34 6.8 0 0 Z " fill="#C2A266" transform="translate(143,60)"/>
<path d="M0 0 C-1.98593513 0.51196665 -3.90174203 0.98732155 -5.9375 1.25 C-8.2881864 1.93121981 -8.2881864 1.93121981 -10.375 4.5 C-13.34876295 7.33215519 -14.97913254 7.71947436 -19 8 C-17.35697047 6.31002677 -15.68528688 4.64783606 -14 3 C-13.2575 2.21625 -12.515 1.4325 -11.75 0.625 C-7.73552874 -1.74718756 -4.43751129 -0.88943581 0 0 Z " fill="#FBF0DD" transform="translate(209,77)"/>
<path d="M0 0 C0.33 0 0.66 0 1 0 C1.37369729 7.47394574 0.04061541 13.82140651 -2 21 C-2.66 19.68 -3.32 18.36 -4 17 C-3.67 16.67 -3.34 16.34 -3 16 C-2.62607155 13.49935351 -2.29475984 11.01006422 -2 8.5 C-1.13513514 1.13513514 -1.13513514 1.13513514 0 0 Z " fill="#F7E9CB" transform="translate(27,18)"/>
<path d="M0 0 C0.66 0 1.32 0 2 0 C2 3.96 2 7.92 2 12 C1.01 12.33 0.02 12.66 -1 13 C-1.02696365 11.20841511 -1.04637917 9.41671527 -1.0625 7.625 C-1.07410156 6.62726562 -1.08570313 5.62953125 -1.09765625 4.6015625 C-1 2 -1 2 0 0 Z " fill="#FCF2E1" transform="translate(325,50)"/>
<path d="M0 0 C0.66 0 1.32 0 2 0 C2.36340286 1.76896102 2.71540883 3.54026626 3.0625 5.3125 C3.25972656 6.29863281 3.45695312 7.28476562 3.66015625 8.30078125 C4 11 4 11 3 14 C1 13 1 13 0.37890625 11.234375 C-0.02399618 8.85849677 -0.09791478 6.65820483 -0.0625 4.25 C-0.05347656 3.45078125 -0.04445312 2.6515625 -0.03515625 1.828125 C-0.02355469 1.22484375 -0.01195312 0.6215625 0 0 Z " fill="#CBAE77" transform="translate(44,19)"/>
<path d="M0 0 C0.33 0 0.66 0 1 0 C1.33 5.61 1.66 11.22 2 17 C0.68 17.33 -0.64 17.66 -2 18 C-1.34 12.06 -0.68 6.12 0 0 Z " fill="#F8EAC7" transform="translate(325,12)"/>
<path d="M0 0 C0.99 0.33 1.98 0.66 3 1 C4.125 7.625 4.125 7.625 3 11 C2.01 10.67 1.02 10.34 0 10 C0 6.7 0 3.4 0 0 Z " fill="#CBAE78" transform="translate(94,34)"/>
<path d="M0 0 C0.66 0.33 1.32 0.66 2 1 C2.4140625 3.28515625 2.4140625 3.28515625 2.625 6.0625 C2.69976562 6.98160156 2.77453125 7.90070313 2.8515625 8.84765625 C2.90054688 9.55792969 2.94953125 10.26820312 3 11 C2.34 10.67 1.68 10.34 1 10 C1 9.34 1 8.68 1 8 C0.01 7.67 -0.98 7.34 -2 7 C-2.125 4.625 -2.125 4.625 -2 2 C-1.34 1.34 -0.68 0.68 0 0 Z " fill="#FAEBCF" transform="translate(109,60)"/>
<path d="M0 0 C0.99 0 1.98 0 3 0 C3 3.3 3 6.6 3 10 C2.01 9.67 1.02 9.34 0 9 C0 6.03 0 3.06 0 0 Z " fill="#CFB380" transform="translate(99,52)"/>
<path d="M0 0 C0.33 0 0.66 0 1 0 C0.67 7.26 0.34 14.52 0 22 C-0.33 22 -0.66 22 -1 22 C-1.22262638 19.27132267 -1.42852324 16.54308042 -1.625 13.8125 C-1.68945312 13.04357422 -1.75390625 12.27464844 -1.8203125 11.48242188 C-2.11996357 7.11875319 -2.09450183 3.98914662 0 0 Z " fill="#D3B683" transform="translate(228,36)"/>
<path d="M0 0 C0.66 0 1.32 0 2 0 C2 3.3 2 6.6 2 10 C1.01 10 0.02 10 -1 10 C-1.02689216 8.52093108 -1.04634621 7.04172517 -1.0625 5.5625 C-1.07410156 4.73878906 -1.08570313 3.91507813 -1.09765625 3.06640625 C-1 1 -1 1 0 0 Z " fill="#F9F6F1" transform="translate(359,36)"/>
<path d="M0 0 C0.66 0 1.32 0 2 0 C2.10836453 1.43583001 2.18576167 2.8740202 2.25 4.3125 C2.29640625 5.11300781 2.3428125 5.91351563 2.390625 6.73828125 C2 9 2 9 -0.015625 10.79296875 C-0.67046875 11.19128906 -1.3253125 11.58960937 -2 12 C-1.85962479 10.18706911 -1.71255111 8.3746557 -1.5625 6.5625 C-1.48128906 5.55316406 -1.40007813 4.54382813 -1.31640625 3.50390625 C-1 1 -1 1 0 0 Z " fill="#FCF5E8" transform="translate(25,61)"/>
<path d="M0 0 C0.33 0 0.66 0 1 0 C1.33 5.61 1.66 11.22 2 17 C1.01 17 0.02 17 -1 17 C-0.67 11.39 -0.34 5.78 0 0 Z " fill="#D2B57F" transform="translate(327,6)"/>
<path d="M0 0 C2.29109597 -0.08075665 4.58299267 -0.13907731 6.875 -0.1875 C8.78925781 -0.23970703 8.78925781 -0.23970703 10.7421875 -0.29296875 C11.81726563 -0.19628906 12.89234375 -0.09960938 14 0 C14.66 0.99 15.32 1.98 16 3 C15.319375 2.835 14.63875 2.67 13.9375 2.5 C8.91993923 1.6459471 4.42404768 1.16860949 0 4 C0 2.68 0 1.36 0 0 Z " fill="#F7EBD4" transform="translate(196,73)"/>
<path d="M0 0 C-1.2065625 0.5878125 -1.2065625 0.5878125 -2.4375 1.1875 C-5.23064738 2.76948191 -5.23064738 2.76948191 -5.8125 5.6875 C-5.9053125 6.8321875 -5.9053125 6.8321875 -6 8 C-6.99 8 -7.98 8 -9 8 C-9.36585366 3.48780488 -9.36585366 3.48780488 -7.6875 1.25 C-4.77156235 -0.90995382 -3.45696967 -1.15232322 0 0 Z " fill="#CBB07B" transform="translate(250,69)"/>
<path d="M0 0 C2 1 2 1 4 3 C3.625 5.625 3.625 5.625 3 8 C2.01 8 1.02 8 0 8 C-0.33 8.99 -0.66 9.98 -1 11 C-0.67 7.37 -0.34 3.74 0 0 Z " fill="#FAEDD6" transform="translate(31,60)"/>
<path d="M0 0 C2.04379831 4.08759663 2.18594005 4.98685565 1.625 9.25 C1.51414063 10.14203125 1.40328125 11.0340625 1.2890625 11.953125 C1.19367188 12.62859375 1.09828125 13.3040625 1 14 C0.01 14 -0.98 14 -2 14 C-1.34 9.38 -0.68 4.76 0 0 Z " fill="#C8AB75" transform="translate(222,10)"/>
<path d="M0 0 C0.33 0 0.66 0 1 0 C1.22126178 2.45779976 1.42750395 4.91527648 1.625 7.375 C1.68945312 8.07367188 1.75390625 8.77234375 1.8203125 9.4921875 C1.96119739 11.32369111 1.98761659 13.16312748 2 15 C0 17 0 17 -3 18 C-2.68289062 17.31550781 -2.36578125 16.63101563 -2.0390625 15.92578125 C-0.85883043 12.60249621 -0.58802755 9.70245465 -0.375 6.1875 C-0.30023438 5.02605469 -0.22546875 3.86460938 -0.1484375 2.66796875 C-0.09945312 1.78753906 -0.05046875 0.90710937 0 0 Z " fill="#EFDCBA" transform="translate(148,47)"/>
<path d="M0 0 C0.99 0.33 1.98 0.66 3 1 C3 5.95 3 10.9 3 16 C2.67 16 2.34 16 2 16 C1.34 10.72 0.68 5.44 0 0 Z " fill="#C6A25F" transform="translate(147,38)"/>
<path d="M0 0 C1.875 0.1875 1.875 0.1875 4 1 C5.52164099 3.89111788 6 5.71823412 6 9 C4.68 8.67 3.36 8.34 2 8 C2.04125 7.236875 2.0825 6.47375 2.125 5.6875 C2.22080824 2.77281584 2.22080824 2.77281584 0 0 Z " fill="#C4A466" transform="translate(337,70)"/>
<path d="M0 0 C0.33 0.99 0.66 1.98 1 3 C-2.85756507 5.15305957 -5.55129785 6.39253254 -10 6 C-9.67 5.01 -9.34 4.02 -9 3 C-5.5625 1.875 -5.5625 1.875 -2 1 C-1.34 0.67 -0.68 0.34 0 0 Z " fill="#CBB180" transform="translate(186,84)"/>
<path d="M0 0 C3.41584899 1.41345476 4.86780732 3.03347106 7 6 C7.99 6.66 8.98 7.32 10 8 C7.8125 8.375 7.8125 8.375 5 8 C2.91167347 6.17130326 1.61663209 4.30947441 0 2 C0 1.34 0 0.68 0 0 Z " fill="#C4A870" transform="translate(170,81)"/>
<path d="M0 0 C0.66 0.33 1.32 0.66 2 1 C1.7834375 2.0209375 1.7834375 2.0209375 1.5625 3.0625 C0.93054091 6.36273082 0.45686059 9.67144426 0 13 C-0.33 13 -0.66 13 -1 13 C-2.42857143 4.57142857 -2.42857143 4.57142857 0 0 Z " fill="#CEB27C" transform="translate(30,46)"/>
<path d="M0 0 C0.33 0 0.66 0 1 0 C1.33 3.96 1.66 7.92 2 12 C1.01 11.34 0.02 10.68 -1 10 C-1.328125 7.87109375 -1.328125 7.87109375 -1.25 5.4375 C-1.23453125 4.63183594 -1.2190625 3.82617188 -1.203125 2.99609375 C-1 1 -1 1 0 0 Z " fill="#BBA06C" transform="translate(100,22)"/>
<path d="M0 0 C1.32 0.66 2.64 1.32 4 2 C3.34 2.66 2.68 3.32 2 4 C1.30251417 5.31747324 0.63040043 6.64914193 0 8 C-0.99 6.35 -1.98 4.7 -3 3 C-2.01 2.01 -1.02 1.02 0 0 Z " fill="#FCF3E3" transform="translate(240,68)"/>
<path d="M0 0 C0.66 0 1.32 0 2 0 C2.08096803 1.45742463 2.13917774 2.91612807 2.1875 4.375 C2.22230469 5.18710937 2.25710937 5.99921875 2.29296875 6.8359375 C2.19628906 7.55007812 2.09960938 8.26421875 2 9 C1.01 9.66 0.02 10.32 -1 11 C-0.67 7.37 -0.34 3.74 0 0 Z " fill="#C1A05F" transform="translate(112,52)"/>
<path d="M0 0 C1.31611677 0.95336021 2.62778961 1.91285774 3.9375 2.875 C4.66839844 3.40867188 5.39929688 3.94234375 6.15234375 4.4921875 C8 6 8 6 9 8 C7.35 7.67 5.7 7.34 4 7 C4 6.01 4 5.02 4 4 C3.01 4 2.02 4 1 4 C0.67 2.68 0.34 1.36 0 0 Z " fill="#F9EFDA" transform="translate(303,39)"/>
<path d="M0 0 C0.33 0 0.66 0 1 0 C1.08333357 4.8333472 0.95261487 9.23692563 0 14 C-2.21224819 10.68162771 -2.35715143 9.83937792 -2 6 C-1.39072482 3.98177598 -0.73519522 1.97583715 0 0 Z " fill="#F4E8D0" transform="translate(48,31)"/>
<path d="M0 0 C3 1 3 1 4.25 3.3125 C5.0275526 6.09873015 4.98726527 7.33438378 4 10 C2 8.375 2 8.375 0 6 C-0.25 2.75 -0.25 2.75 0 0 Z " fill="#D3BA89" transform="translate(116,28)"/>
<path d="M0 0 C1.67542976 0.28604898 3.34385343 0.61781233 5 1 C5.33 2.98 5.66 4.96 6 7 C5.01 7 4.02 7 3 7 C3 5.35 3 3.7 3 2 C1.68 1.67 0.36 1.34 -1 1 C-0.67 0.67 -0.34 0.34 0 0 Z " fill="#C0A674" transform="translate(102,61)"/>
<path d="M0 0 C0.99 0 1.98 0 3 0 C2.67 2.97 2.34 5.94 2 9 C1.67 9 1.34 9 1 9 C0.63877119 7.68942607 0.28619689 6.37646376 -0.0625 5.0625 C-0.35833984 3.96615234 -0.35833984 3.96615234 -0.66015625 2.84765625 C-0.77230469 2.23792969 -0.88445312 1.62820312 -1 1 C-0.67 0.67 -0.34 0.34 0 0 Z " fill="#FBF6ED" transform="translate(114,48)"/>
<path d="M0 0 C0.33 0 0.66 0 1 0 C1.2493357 1.60115576 1.47378648 3.20620159 1.6875 4.8125 C1.87892578 6.15248047 1.87892578 6.15248047 2.07421875 7.51953125 C2 10 2 10 0.51953125 11.82421875 C-0.23263672 12.40623047 -0.23263672 12.40623047 -1 13 C-2.40742022 10.18515955 -1.66652164 8.43063887 -1.0625 5.375 C-0.86785156 4.37210938 -0.67320312 3.36921875 -0.47265625 2.3359375 C-0.31667969 1.56507812 -0.16070312 0.79421875 0 0 Z " fill="#CFB788" transform="translate(168,50)"/>
<path d="M0 0 C0.33 0.66 0.66 1.32 1 2 C-2.47307692 7.82980769 -2.47307692 7.82980769 -5.140625 8.69140625 C-5.75421875 8.79324219 -6.3678125 8.89507812 -7 9 C-6.02180976 7.68677212 -5.0424189 6.37443848 -4.0625 5.0625 C-3.51722656 4.33160156 -2.97195312 3.60070313 -2.41015625 2.84765625 C-1 1 -1 1 0 0 Z " fill="#F9EED7" transform="translate(59,39)"/>
<path d="M0 0 C0.33 0 0.66 0 1 0 C1.17835515 4.54805635 0.99785435 7.8794254 -1 12 C-1.33 12 -1.66 12 -2 12 C-2.21278058 7.53160785 -1.59138085 4.17737474 0 0 Z " fill="#C0A16B" transform="translate(23,40)"/>
<path d="M0 0 C3.3 1.65 6.6 3.3 10 5 C6.1851221 6.27162597 4.6068725 5.64661571 1 4 C0.67 2.68 0.34 1.36 0 0 Z " fill="#F7ECD5" transform="translate(407,90)"/>
<path d="M0 0 C0.515625 0.2475 1.03125 0.495 1.5625 0.75 C1.5625 1.41 1.5625 2.07 1.5625 2.75 C0.77875 2.70875 -0.005 2.6675 -0.8125 2.625 C-3.59866119 2.46271266 -3.59866119 2.46271266 -5.4375 4.75 C-7.5625 4.375 -7.5625 4.375 -9.4375 3.75 C-3.0375 -0.31153846 -3.0375 -0.31153846 0 0 Z " fill="#F7E9CC" transform="translate(235.4375,73.25)"/>
<path d="M0 0 C0 0.66 0 1.32 0 2 C-2.97 2.66 -5.94 3.32 -9 4 C-8.67 3.01 -8.34 2.02 -8 1 C-5.29120665 -0.35439668 -2.99066732 -0.06501451 0 0 Z " fill="#C4A469" transform="translate(206,74)"/>
<path d="M0 0 C2 3.75 2 3.75 2 6 C0.35 5.67 -1.3 5.34 -3 5 C-3.33 4.01 -3.66 3.02 -4 2 C-3.01 2.33 -2.02 2.66 -1 3 C-0.67 2.01 -0.34 1.02 0 0 Z " fill="#C1A164" transform="translate(242,73)"/>
<path d="M0 0 C1.5625 1.75 1.5625 1.75 3 4 C2.875 6.1875 2.875 6.1875 2 8 C1.01 8.33 0.02 8.66 -1 9 C-0.67 6.03 -0.34 3.06 0 0 Z " fill="#D2B47C" transform="translate(25,11)"/>
<path d="M0 0 C0.33 0 0.66 0 1 0 C1.12375 1.0725 1.2475 2.145 1.375 3.25 C1.89643936 6.37863615 2.40088254 8.33480424 4 11 C2.68 10.67 1.36 10.34 0 10 C0 6.7 0 3.4 0 0 Z " fill="#FBEFDB" transform="translate(319,52)"/>
<path d="M0 0 C2.475 0.495 2.475 0.495 5 1 C3.35 2.65 1.7 4.3 0 6 C0 4.02 0 2.04 0 0 Z " fill="#FBF4E1" transform="translate(48,42)"/>
</svg>
